<?xml version="1.0" encoding="utf-8"?>
<!-- Generator: Adobe Illustrator 16.0.0, SVG Export Plug-In . SVG Version: 6.00 Build 0)  -->
<!DOCTYPE svg PUBLIC "-//W3C//DTD SVG 1.1//EN" "http://www.w3.org/Graphics/SVG/1.1/DTD/svg11.dtd">
<svg version="1.1" id="Layer_1" xmlns="http://www.w3.org/2000/svg" xmlns:xlink="http://www.w3.org/1999/xlink" x="0px" y="0px"
	 width="200.178px" height="37.607px" viewBox="0 0 200.178 37.607" enable-background="new 0 0 200.178 37.607"
	 xml:space="preserve">
<title>logotip white@3x</title>
<desc>Created with Sketch.</desc>
<g id="Service-Sample-Page" transform="translate(-620.000000, -48.000000)">
	<g id="logotip-white" transform="translate(620.000000, 48.000000)">
		<circle fill="#FFFFFF" cx="172.421" cy="35.093" r="1.813"/>
		<path id="Fill-1-Copy" fill="#FFFFFF" d="M57.631,15.335v21.571h-2.338V15.335H51v-2.026h4.294V9.111
			c0-2.364,0.668-4.247,2.004-5.646s3.15-2.124,5.44-2.124c1.289,0,2.528,0.242,3.722,0.772l-0.715,1.978
			c-0.811-0.434-1.766-0.627-2.816-0.627c-1.622,0-2.911,0.531-3.817,1.544c-0.906,1.014-1.383,2.413-1.383,4.15v4.152h9.209v2.027
			L57.631,15.335z"/>
		<path id="Fill-4-Copy" fill="#FFFFFF" d="M79.263,35.301c2.815,0,5.201-0.918,7.11-2.848c1.909-1.932,2.863-4.393,2.863-7.334
			c0-2.943-0.954-5.404-2.863-7.336c-1.909-1.93-4.294-2.896-7.11-2.896c-2.815,0-5.201,0.965-7.109,2.896
			c-1.909,1.932-2.863,4.393-2.863,7.336c0,2.941,0.954,5.355,2.863,7.287C74.062,34.336,76.448,35.301,79.263,35.301L79.263,35.301
			z M87.996,16.239c2.338,2.316,3.531,5.261,3.531,8.782c0,3.523-1.193,6.467-3.531,8.832c-2.339,2.363-5.25,3.521-8.733,3.521
			c-3.483,0-6.394-1.158-8.731-3.521C68.192,31.488,67,28.545,67,25.021c0-3.521,1.193-6.465,3.532-8.782
			c2.338-2.316,5.248-3.474,8.731-3.474C82.747,12.765,85.657,13.923,87.996,16.239L87.996,16.239z"/>
		<path id="Fill-6-Copy" fill="#FFFFFF" d="M115.234,36.884h-2.338v-5.02c-0.906,1.785-2.195,3.137-3.818,4.102
			c-1.623,0.967-3.531,1.449-5.678,1.449c-2.817,0-5.107-0.918-6.825-2.801C94.858,32.733,94,30.272,94,27.233V13.334h2.291v13.56
			c0,2.463,0.668,4.441,2.004,5.984c1.336,1.545,3.149,2.314,5.393,2.314c2.814,0,5.057-0.916,6.727-2.75
			c1.672-1.834,2.529-4.295,2.529-7.432V13.286h2.301L115.234,36.884z"/>
		<path id="Fill-8-Copy" fill="#FFFFFF" d="M130.93,12.754c2.814,0,5.01,0.772,6.727,2.654c1.719,1.882,2.576,4.344,2.576,7.383
			V36.93h-2.338V23.129c0-2.461-0.668-4.439-2.004-5.936c-1.336-1.496-3.104-2.268-5.297-2.268c-2.814,0-5.059,0.917-6.729,2.75
			c-1.67,1.835-2.529,4.296-2.529,7.433V36.93H119V13.333h2.338v5.019C123.246,14.637,126.443,12.754,130.93,12.754L130.93,12.754z"
			/>
		<path id="Fill-10-Copy" fill="#FFFFFF" d="M154.919,35.321c2.603,0,4.874-0.909,6.814-2.774c1.938-1.866,2.883-4.306,2.883-7.318
			c0-3.015-0.945-5.455-2.883-7.321c-1.94-1.865-4.212-2.822-6.814-2.822c-2.694,0-4.966,0.909-6.857,2.775
			c-1.892,1.866-2.839,4.305-2.839,7.32c0,3.062,0.947,5.501,2.79,7.367C149.858,34.412,152.176,35.321,154.919,35.321
			L154.919,35.321z M166.936,36.899h-2.317v-5.022c-0.993,1.77-2.366,3.109-4.116,4.066c-1.749,0.958-3.689,1.435-5.816,1.435
			c-3.265,0-6.011-1.148-8.279-3.396c-2.271-2.25-3.406-5.214-3.406-8.851c0-3.587,1.135-6.552,3.406-8.85
			c2.269-2.296,5.015-3.444,8.279-3.444c2.127,0,4.067,0.479,5.816,1.435c1.75,0.957,3.123,2.296,4.116,4.066V2.312h2.317V36.899z"
			/>
		<path id="Fill-14-Copy" fill="#FFFFFF" d="M177.668,36.906h2.291V13.31h-2.291V36.906z"/>
		<path id="Fill-16-Copy" fill="#FFFFFF" d="M200.178,35.494c-1.621,1.254-3.34,1.881-5.105,1.881c-2.1,0-3.77-0.627-5.057-1.881
			c-1.289-1.256-1.91-3.041-1.91-5.309V15.273H183v-2.026h5.105V5.478h2.338v7.769h8.73v2.026h-8.73v14.768
			c0,1.592,0.43,2.846,1.289,3.764c0.857,0.916,2.004,1.35,3.436,1.35c1.479,0,2.814-0.529,4.057-1.592L200.178,35.494z"/>
		<path id="Fill-18-Copy" fill="#FFFFFF" d="M23.625,24.58l6.59,6.705c1.757,1.787,4.093,2.771,6.577,2.771s4.819-0.983,6.576-2.771
			c3.634-3.697,3.634-9.711,0.001-13.409c-1.758-1.788-4.093-2.772-6.577-2.772s-4.82,0.984-6.577,2.772L23.625,24.58z
			 M36.792,37.375c-3.364,0-6.526-1.332-8.904-3.75L19,24.58l8.889-9.043c2.377-2.418,5.54-3.75,8.904-3.75
			c3.364,0,6.526,1.333,8.903,3.75c4.902,4.987,4.902,13.102,0,18.088C43.318,36.043,40.157,37.375,36.792,37.375L36.792,37.375z"/>
		<path id="Fill-20-Copy" fill="#FFFFFF" d="M12.58,37.375c-3.364,0-6.526-1.332-8.903-3.75c-4.902-4.986-4.902-13.102,0-18.088
			c2.377-2.418,5.539-3.75,8.903-3.75c3.364,0,6.526,1.332,8.903,3.75l0.42,0.428l-2.327,2.338l-0.42-0.427
			c-1.757-1.788-4.092-2.772-6.577-2.772c-2.484,0-4.82,0.984-6.577,2.772c-3.634,3.698-3.634,9.711,0,13.409
			c1.757,1.787,4.093,2.771,6.577,2.771s4.819-0.983,6.577-2.771l0.42-0.428l2.327,2.338l-0.42,0.43
			C19.104,36.043,15.943,37.375,12.58,37.375"/>
		<circle fill="#FFFFFF" cx="178.813" cy="6.051" r="1.813"/>
	</g>
</g>
</svg>
