<svg id="Camada_1" xmlns="http://www.w3.org/2000/svg" viewBox="0 0 66.6 93.1"><style>.st0{fill:none}</style><path class="st0" d="M55.6 26.1V12.9H11v13.2c0 9.3 5.7 17.3 13.9 20.7C16.8 50.1 11 58.1 11 67.5v12.3h44.6V67.4c0-9.3-5.7-17.3-13.9-20.7 8.2-3.3 13.9-11.3 13.9-20.6zM34.5 46.3s6.4 3.2 9 5.2c4.8 2.8 9.1 9.8 9.1 15.3v10.4H14.1V66.8c0-3.8 1.8-8.5 4.8-12.2 2.5-3.5 13.5-8.4 13.5-8.4-4.8-.6-10.7-4.3-9.9-4.2 0 0-8.2-5.3-8.4-14.5V16.1h38.4v11.4c0 5.4-4 12.4-8.9 15.2-2.8 1.8-6.9 3.1-9.1 3.6z"/><path class="st0" d="M61.5 16.8l-4-.4-3.8-4.4-40.9-.2-1.8 5H4.5V4.3h57zm0 71.5h-57V75.8h6.7l1.4 3 39.6.2 2.4-3.2h6.9z"/><path d="M57 81.3H9.4V67.5c0-8.7 4.6-16.5 12-20.7-7.4-4.2-12-12.1-12-20.7V11.4H57v14.7c0 8.7-4.6 16.4-12 20.6 7.4 4.2 12 12.1 12 20.7v13.9zm-44.6-3H54V67.4c0-8.5-5.1-16-13-19.3l-3.4-1.4 3.4-1.4c7.9-3.2 13-10.7 13-19.2V14.4H12.4v11.7c0 8.5 5.1 16 13 19.3l3.4 1.4-3.4 1.4c-7.9 3.2-13 10.8-13 19.3v10.8z"/><path d="M59.5 18.8h-4c-.8 0-1.5-.7-1.5-1.5s.7-1.5 1.5-1.5h4c.3 0 .4-.2.4-.4V6c0-.3-.2-.4-.4-.4H6.9c-.3 0-.4.2-.4.4v9.4c0 .3.2.4.4.4h4c.8 0 1.5.7 1.5 1.5s-.7 1.5-1.5 1.5h-4c-1.9 0-3.4-1.5-3.4-3.4V6c0-1.9 1.5-3.4 3.4-3.4h52.6c1.9 0 3.4 1.5 3.4 3.4v9.4c0 1.9-1.5 3.4-3.4 3.4zm0 71H6.9c-1.9 0-3.4-1.5-3.4-3.4V77c0-1.9 1.5-3.4 3.4-3.4h4c.8 0 1.5.7 1.5 1.5s-.7 1.5-1.5 1.5h-4c-.3 0-.4.2-.4.4v9.4c0 .3.2.4.4.4h52.6c.3 0 .4-.2.4-.4V77c0-.3-.2-.4-.4-.4h-4c-.8 0-1.5-.7-1.5-1.5s.7-1.5 1.5-1.5h4c1.9 0 3.4 1.5 3.4 3.4v9.4c0 1.9-1.5 3.4-3.4 3.4z"/></svg>