<svg id="Camada_1" xmlns="http://www.w3.org/2000/svg" viewBox="0 0 66.6 93.1"><style>.st0{fill:#fff}</style><path class="st0" d="M56.3 26.8V13.6H11.7v13.2c0 9.3 5.7 17.3 13.9 20.7-8.1 3.3-13.9 11.3-13.9 20.7v12.3h44.6V68.1c0-9.3-5.7-17.3-13.9-20.7 8.2-3.3 13.9-11.3 13.9-20.6zM37.1 47s4.4 2.2 7 4.2c4.8 2.8 9.1 10.8 9.1 16.3v10.4H14.8V67.5c0-3.8 1.8-8.5 4.8-12.2 2.5-3.5 10.5-8.4 10.5-8.4-1.4-.5-6.9-4.2-6.9-4.2s-8.2-5.3-8.4-14.5V16.8h38.4v11.4c0 5.4-4 12.4-8.9 15.2-2.8 1.8-5 3.1-7.2 3.6z"/><path class="st0" d="M62.2 17.5l-4-.4-3.9-4.4-40.8-.2-1.8 5H5.2V5h57zm0 71.5h-57V76.5h6.6l1.5 3 39.6.1 2.3-3.1h7z"/><path d="M56.2 26.8V13.6H11.6v13.2c0 9.3 5.7 17.3 13.9 20.7-8.1 3.3-13.9 11.3-13.9 20.7v12.3h44.6V68.1c0-9.3-5.7-17.3-13.9-20.7 8.2-3.3 13.9-11.3 13.9-20.6z" fill="none" stroke="#000" stroke-width="3" stroke-miterlimit="10"/><path d="M11.6 18h-4c-1 0-1.9-.8-1.9-1.9V6.7c0-1 .8-1.9 1.9-1.9h52.6c1 0 1.9.8 1.9 1.9v9.4c0 1-.8 1.9-1.9 1.9h-4m0 57.8h4c1 0 1.9.8 1.9 1.9v9.4c0 1-.8 1.9-1.9 1.9H7.6c-1 0-1.9-.8-1.9-1.9v-9.4c0-1 .8-1.9 1.9-1.9h4" fill="none" stroke="#000" stroke-width="3" stroke-linecap="round" stroke-linejoin="round" stroke-miterlimit="10"/></svg>