<svg xmlns="http://www.w3.org/2000/svg" viewBox="0 0 115.9 118.6"><path d="M53.2 87.3c-2.8 0-5.4-1.1-7.3-3L30.1 68.4c-2-2-3-4.6-3-7.3 0-2.8 1.1-5.4 3-7.3 2-2 4.6-3 7.3-3 2.8 0 5.4 1.1 7.3 3l8 8L74 37.5c2-2.2 4.8-3.5 7.8-3.5 2.5 0 5 .9 6.8 2.6 4.3 3.8 4.7 10.4.9 14.6L61 83.7c-1.9 2.1-4.6 3.4-7.5 3.5l-.3.1z" fill="#fff"/><path d="M81.8 35.4c2.1 0 4.2.7 5.9 2.2 3.7 3.2 4 8.8.8 12.5L59.8 82.7c-1.6 1.8-3.9 2.9-6.4 3h-.3c-2.4 0-4.6-.9-6.3-2.6L31.1 67.4c-3.5-3.5-3.5-9.1 0-12.6 1.7-1.7 4-2.6 6.3-2.6s4.5.9 6.3 2.6l9.1 9.1 22.4-25.4c1.7-2 4.1-3.1 6.6-3.1m0-3c-3.4 0-6.7 1.5-8.9 4l-20.3 23-6.8-6.8c-2.2-2.2-5.2-3.5-8.4-3.5s-6.2 1.2-8.4 3.5c-2.2 2.2-3.5 5.2-3.5 8.4s1.2 6.2 3.5 8.4l15.8 15.8c2.2 2.2 5.2 3.5 8.4 3.5h.3c3.3-.1 6.4-1.6 8.6-4l28.6-32.6c4.3-4.9 3.8-12.4-1.1-16.8-2.1-1.8-4.9-2.9-7.8-2.9z"/></svg>