<svg id="Camada_1" xmlns="http://www.w3.org/2000/svg" viewBox="0 0 116.1 113.9"><style>.st0{fill:#fff}.st2{fill:#231f20}.st3{fill:none;stroke:#07dce0;stroke-width:3;stroke-miterlimit:10}</style><path class="st0" d="M98.2 81.4V28.7c0-19-16-20.1-16.3-20.2H22.3v.1a16 16 0 0 0-3.9-.5C9.6 8.1 2.5 15.3 2.5 24v7h27.9v59.7c0 8.8 7.1 15.9 15.9 15.9 1.2 0 2.4-.1 3.5-.4h44.9l2.6-.1c9 0 16.3-6.9 16.3-15.4v-9.3H98.2z"/><path d="M34.3 22.8c0 7.6-6.6 3.6-14.8 3.6-8.2 0-14.8 4-14.8-3.6S11.3 9.1 19.5 9.1c8.2 0 14.8 6.1 14.8 13.7z" fill="#07dce0"/><path class="st0" d="M31.9 27.9H4.8v-4.7c0-7.5 6.1-13.6 13.6-13.6S32 15.7 32 23.2v4.7z"/><path class="st2" d="M34.3 30.2H2.5v-7c0-8.8 7.1-15.9 15.9-15.9s15.9 7.1 15.9 15.9v7zM7.1 25.6h22.5v-2.3c0-6.2-5-11.3-11.3-11.3C12.1 12 7 17 7 23.3v2.3z"/><path class="st2" d="M46.3 105.8c-8.8 0-15.9-7.1-15.9-15.9V27.5c0-13.8-8.1-15.1-8.4-15.1l.3-4.6h59.6c.3 0 16.3 1.1 16.3 20.2v52.7h15.5V90c0 8.5-7.3 15.4-16.3 15.4l-2.6.1H49.9c-1.2.1-2.4.3-3.6.3zM30.4 12.4c2.5 2.9 4.7 7.6 4.7 15.1v62.4c0 6.2 5.1 11.3 11.3 11.3.9 0 1.8-.1 2.7-.3v-.1h.2c4.8-1.3 8.3-5.7 8.3-10.9v-9.3h35.9V27.9c0-14.7-11.3-15.5-11.8-15.5H30.4zm27.5 88.3h36.7l2.6-.1c6.5 0 11.7-4.8 11.7-10.8v-4.7H62.2v4.7c0 4.3-1.7 8.1-4.3 10.9z"/><path d="M59.4 42.2h27.7V46H59.4z"/><path class="st3" d="M42.8 38.1l6.3 4.8 8-11.1"/><path d="M59.4 62.5h27.7v3.8H59.4z"/><path class="st3" d="M42.8 58.5l6.3 4.8 8-11.2"/></svg>