<svg xmlns="http://www.w3.org/2000/svg" viewBox="0 0 115.9 118.6"><path d="M80.2 88.5c-2.3 0-4.5-.8-6.2-2.4L58 71.8 42 86.1c-1.7 1.5-3.9 2.4-6.2 2.4-2.7 0-5.2-1.1-7-3.2-3.4-3.9-3.1-9.8.8-13.3L44 59.2 29.4 46.5c-3.9-3.4-4.2-9.4-.8-13.3 1.8-2 4.3-3.2 7-3.2 2.3 0 4.5.8 6.2 2.4l16 14.3 16-14.3c1.7-1.5 3.9-2.4 6.2-2.4 2.7 0 5.2 1.1 7 3.1 3.4 3.9 3.1 9.8-.8 13.3L72.1 59.3l14.4 12.8c3.9 3.4 4.2 9.4.8 13.3-1.8 1.9-4.4 3.1-7.1 3.1z" fill="#fff"/><path d="M35.7 31.6c1.9 0 3.7.7 5.2 2l17 15.1 17-15.1c1.5-1.3 3.4-2 5.2-2 2.2 0 4.3.9 5.9 2.6 2.9 3.3 2.6 8.3-.7 11.2L69.8 59.3l15.6 13.9c3.3 2.9 3.5 7.9.7 11.1-1.5 1.7-3.6 2.7-5.9 2.7-1.9 0-3.8-.7-5.2-2L58 69.9 40.9 85c-1.4 1.3-3.3 2-5.2 2-2.3 0-4.4-1-5.9-2.7-2.9-3.3-2.6-8.3.7-11.1l15.6-13.9-15.7-13.9c-3.3-2.9-3.5-7.9-.7-11.1 1.6-1.8 3.8-2.7 6-2.7m0-3c-3.1 0-6.1 1.3-8.1 3.7-4 4.5-3.6 11.4.9 15.4l13.1 11.7L28.4 71c-4.5 4-4.9 10.9-.9 15.4 2.1 2.3 5 3.7 8.1 3.7 2.7 0 5.2-1 7.2-2.8l15-13.4 15 13.4c2 1.8 4.6 2.8 7.2 2.8 3.1 0 6.1-1.3 8.1-3.7 4-4.5 3.6-11.4-.9-15.4L74.3 59.3l13.1-11.7c4.5-4 4.9-10.9.9-15.4-2.1-2.3-5-3.7-8.2-3.7-2.7 0-5.2 1-7.2 2.7l-15 13.4-15-13.4c-2-1.6-4.6-2.6-7.2-2.6z"/></svg>