<svg id="Camada_1" xmlns="http://www.w3.org/2000/svg" viewBox="0 0 159.2 113.9"><style>.st1,.st3{stroke:#000;stroke-miterlimit:10}.st1{stroke-width:3;fill:#fff}.st3{fill:none}.st4{fill:#fff}</style><circle cx="79.8" cy="56.9" r="56" fill="#002d78"/><path class="st1" d="M15 86.5V15.9c0-1.7 1.4-3 3-3h122.9c1.7 0 3 1.4 3 3v70.5"/><path d="M136.6 86.5c0 1.7-1.4 3-3 3H26.7c-1.7 0-4.5-1.4-4.5-3V22.9c0-1.7 1.4-3 3-3h108.3c1.7 0 3 1.4 3 3v63.6h.1z" fill="#07dce0"/><path class="st1" d="M155.5 96.8c0 1.7-1.4 3-3 3H6.4c-1.7 0-3-1.4-3-3v-6.5c0-1.7 1.4-3 3-3h146.1c1.7 0 3 1.4 3 3v6.5z"/><path class="st3" d="M50.6 88.6l7.3 5.8h42l8.4-6.9"/><path class="st4" d="M125.6 29.1h-41c-2.7 0-5 2.2-5 5v36.7c0 2.7 2.2 5 5 5h41c2.7 0 5-2.2 5-5V34.1c0-2.7-2.2-5-5-5z"/><path class="st1" d="M127.1 69.4c0 1.4-1.1 2.5-2.5 2.5H85.3c-1.4 0-2.5-1.1-2.5-2.5V35c0-1.4 1.1-2.5 2.5-2.5h39.3c1.4 0 2.5 1.1 2.5 2.5v34.4z"/><path class="st3" d="M89.2 42.4h30.3m-30.3 9.7h30.3M89.2 63.2h30.3"/><circle class="st4" cx="51.2" cy="51.7" r="20"/><circle class="st4" cx="51.3" cy="51.7" r="23.2"/><path d="M51.2 72.8c-11.6 0-21.1-9.4-21.1-21.1 0-11.6 9.4-21.1 21.1-21.1 11.6 0 21.1 9.4 21.1 21.1-.1 11.6-9.5 21.1-21.1 21.1zm0-40.1c-10.5 0-19 8.5-19 19s8.5 19 19 19 19-8.5 19-19c0-10.4-8.6-19-19-19z"/></svg>