<svg id="Camada_1" xmlns="http://www.w3.org/2000/svg" viewBox="0 0 138.4 135.7"><style>.st0{fill:#fff}.st1{fill:#231f20}</style><circle class="st0" cx="69.5" cy="74.3" r="55.3"/><path class="st1" d="M69.5 132.4c-32 0-58.1-26-58.1-58.1 0-32 26-58.1 58.1-58.1s58.1 26 58.1 58.1c-.1 32-26.1 58.1-58.1 58.1zm0-110.6c-29 0-52.5 23.6-52.5 52.5s23.6 52.5 52.5 52.5S122 103.2 122 74.3 98.4 21.8 69.5 21.8z"/><path class="st1" d="M27.3 86.7H31v24.9h-3.7zm16.1 12h3.7v24.9h-3.7zm16.2 5.6h3.7v24.9h-3.7zm16.1 0h3.7v24.9h-3.7zm16.2-7.4h3.7v24.9h-3.7zM108 86.7h3.7v24.9H108z"/><circle class="st0" cx="69" cy="61.5" r="55.3"/><path class="st1" d="M69 119.5c-32 0-58.1-26-58.1-58.1 0-32 26-58.1 58.1-58.1s58.1 26 58.1 58.1C127 93.5 101 119.5 69 119.5zM69 8.9c-29 0-52.5 23.6-52.5 52.5S40 114 69 114s52.5-23.6 52.5-52.5S97.9 8.9 69 8.9z"/><path d="M100.9 45.9H77.8l-9.2-16.4-15.3 27.1L38 83.8h61.2l-10.1-18 11.8-19.9zM66.3 65.8l11.6-20 11.2 20H66.3z" fill="#002d78"/><path fill="#0cf" d="M77.8 45.8l11.2 20 11.9-19.9z"/></svg>