<svg id="Camada_1" xmlns="http://www.w3.org/2000/svg" viewBox="0 0 80.1 62.8"><style>.st2{fill:none;stroke:#231f20;stroke-width:4;stroke-miterlimit:10}</style><path d="M72.6 43.9C66.3 50.4 54.4 58 39.2 57.5c-21.5-.9-36-18.3-36-22.2 0 0 11.5-22.2 36.1-22.2 26.6 0 38.1 22.2 38.1 22.2.9.9-.8 4.6-4.8 8.6" fill="none" stroke="#231f20" stroke-width="3" stroke-miterlimit="10"/><linearGradient id="SVGID_1_" gradientUnits="userSpaceOnUse" x1="20.295" y1="33.172" x2="60.03" y2="33.172"><stop offset=".009" stop-color="#009bff"/><stop offset=".999" stop-color="#00e8ff"/></linearGradient><path d="M27.4 50.3l12.1-12.7L52 51.1c4.9-3.6 8-9.4 8-15.9 0-11-8.9-19.9-19.9-19.9-11 0-19.9 8.9-19.9 19.9.1 6 2.8 11.5 7.2 15.1z" fill="url(#SVGID_1_)"/><path class="st2" d="M5.8 17.9l5.4 6.6m8.7-16.3l3.6 8.3m50-.4l-5.4 6.6M59.8 7.6l-4.6 7.6M40.1 3.4v9.2"/><circle class="st2" cx="40.2" cy="35.1" r="19.9"/></svg>