<svg id="Camada_1" xmlns="http://www.w3.org/2000/svg" xmlns:xlink="http://www.w3.org/1999/xlink" viewBox="0 0 183.4 165.1"><style>.st1{clip-path:url(#SVGID_3_)}.st2{fill:#002d78}.st4,.st6{fill:#03032b}.st6{stroke:#002d78;stroke-width:.5;stroke-miterlimit:10}.st9{clip-path:url(#SVGID_11_)}</style><circle cx="91.7" cy="82.5" r="74.5" fill="#71e2e2"/><defs><circle id="SVGID_2_" cx="91.7" cy="82.5" r="74.5"/></defs><clipPath id="SVGID_3_"><use xlink:href="#SVGID_2_" overflow="visible"/></clipPath><g class="st1"><path class="st2" d="M155 109.3c0-23.6-12.6-21.9-24.4-21.9H64.7c-14.9 0-23.2-.1-23.2 23.5l-.1 15.7v53.2h113.8v-53.2l-.2-17.3z"/><path d="M112.6 94.6c0 1.2-42.4 11.6-42.4 11.6s.6-10.9.6-12.1L70.5 79l-8-6.1L61.3 56l-5.5-.3 5.5-12.3V33.1c0-1.2.9-2.1 2.1-2.1h45.8c1.2 0 3.2.9 3.2 2.1v61.5h.2z" fill="#fff"/><path class="st2" d="M90.1 38.3v7.4h7.1v-6s6.6-1.2 6.6 5.2v10.3l9 8.3v-31s1-12.7-14-12.7H61.4v13.4h23.8s4.9-.6 4.9 3.6v1.5zm-.4 30.1V56.1H60.8V73c.6 0-1.2 8 7.8 8h14c5.8 0 7.1-7.3 7.1-7.3v-5.3z"/><path id="SVGID_18_" class="st4" d="M111.8 87.2v92.9H154v-74.2S157.1 87 135.7 87l-23.9.2z"/><defs><path id="SVGID_4_" d="M111.8 87.2v92.9H154v-74.2S157.1 87 135.7 87l-23.9.2z"/></defs><clipPath id="SVGID_5_"><use xlink:href="#SVGID_4_" overflow="visible"/></clipPath><g clip-path="url(#SVGID_5_)"><path class="st6" d="M42.5 82.2l5.6-3c2.6-1.4 7-1.4 9.6 0l1 .5c2.7 1.3 7 1.3 9.6-.1l.9-.5c2.6-1.4 7-1.4 9.6-.1l1 .5c2.6 1.3 7 1.3 9.6-.1l.6-.4c2.6-1.4 7-1.4 9.6-.3l1 .5c2.7 1.3 7 1.3 9.7-.1l.8-.4c2.6-1.4 7-1.4 9.6 0l1.6.8c2.6 1.3 7 1.3 9.6 0l.8-.4c2.6-1.4 7-1.4 9.6 0l1 .5c2.7 1.3 7 1.3 9.6-.1l.9-.5c2.6-1.4 7-1.4 9.6-.1l1 .5c2.7 1.3 7 1.3 9.6-.1l.5-.3c2.6-1.4 7-1.4 9.6-.3l1 .5c2.7 1.3 7 1.3 9.7-.1l.8-.4c2.6-1.4-14.8-1.4-12.2 0l6 3"/><path class="st6" d="M42.5 79.3l5.6-3c2.6-1.4 7-1.4 9.6 0l1 .5c2.7 1.3 7 1.3 9.6-.1l.9-.5c2.6-1.4 7-1.4 9.6-.1l1 .5c2.6 1.3 7 1.3 9.6-.1l.5-.3c2.6-1.4 7-1.4 9.6-.3l1 .5c2.7 1.3 7 1.3 9.7-.1l.8-.4c2.6-1.4 7-1.4 9.6 0l1.6.8c2.6 1.3 7 1.3 9.6 0l.8-.4c2.6-1.4 7-1.4 9.6 0l1 .5c2.7 1.3 7 1.3 9.6-.1l.9-.5c2.6-1.4 7-1.4 9.6-.1l1 .5c2.7 1.3 7 1.3 9.6-.1l.5-.3c2.6-1.4 7-1.4 9.6-.3l1 .5c2.7 1.3 7 1.3 9.7-.1l.8-.4c2.6-1.4-14.8-1.4-12.2 0l6 3"/><path class="st6" d="M42.5 76.4l5.6-3c2.6-1.4 7-1.4 9.6 0l1 .5c2.7 1.3 7 1.3 9.6-.1l.9-.5c2.6-1.4 7-1.4 9.6-.1l1 .5c2.6 1.3 7 1.3 9.6-.1l.5-.3c2.6-1.4 7-1.4 9.6-.3l1 .5c2.7 1.3 7 1.3 9.7-.1l.8-.4c2.6-1.4 7-1.4 9.6 0l1.6.8c2.6 1.3 7 1.3 9.6 0l.8-.4c2.6-1.4 7-1.4 9.6 0l1 .5c2.7 1.3 7 1.3 9.6-.1l.9-.5c2.6-1.4 7-1.4 9.6-.1l1 .5c2.7 1.3 7 1.3 9.6-.1l.5-.3c2.6-1.4 7-1.4 9.6-.3l1 .5c2.7 1.3 7 1.3 9.7-.1l.8-.4c2.6-1.4-14.8-1.4-12.2 0l6 3"/><path class="st6" d="M42.5 73.6l5.6-3c2.6-1.4 7-1.4 9.6 0l1 .5c2.7 1.3 7 1.3 9.6-.1l.9-.5c2.6-1.4 7-1.4 9.6-.1l1 .5c2.6 1.3 7 1.3 9.6-.1l.5-.3c2.6-1.4 7-1.4 9.6-.3l1 .5c2.7 1.3 7 1.3 9.7-.1l.8-.4c2.6-1.4 7-1.4 9.6 0l1.6.8c2.6 1.3 7 1.3 9.6 0l.8-.4c2.6-1.4 7-1.4 9.6 0l1 .5c2.7 1.3 7 1.3 9.6-.1l.9-.5c2.6-1.4 7-1.4 9.6-.1l1 .5c2.7 1.3 7 1.3 9.6-.1l.5-.3c2.6-1.4 7-1.6 9.6-.3l1 .5c2.7 1.3 7 1.3 9.7-.1l.8-.4c2.6-1.4-14.8-1.4-12.2 0l6 3"/><path class="st6" d="M42.5 70.7l5.6-3c2.6-1.4 7-1.4 9.6 0l1 .5c2.7 1.3 7 1.3 9.6-.1l.9-.5c2.6-1.4 7-1.4 9.6-.1l1 .5c2.6 1.3 7 1.3 9.6-.1l.5-.3c2.6-1.4 7-1.4 9.6-.3l1 .5c2.7 1.3 7 1.2 9.7-.1l.8-.4c2.6-1.4 7-1.4 9.6 0l1.6.8c2.6 1.3 7 1.3 9.6 0l.8-.4c2.6-1.4 7-1.4 9.6 0l1 .5c2.7 1.3 7 1.3 9.6-.1l.9-.5c2.6-1.4 7-1.4 9.6-.1l1 .5c2.7 1.3 7 1.3 9.6-.1l.5-.3c2.6-1.4 7-1.6 9.6-.3l1 .5c2.7 1.3 7 1.2 9.7-.1l.8-.4c2.6-1.4-14.8-1.4-12.2 0l6 3"/><path class="st6" d="M42.5 67.9l5.6-3c2.6-1.4 7-1.4 9.6 0l1 .5c2.7 1.3 7 1.3 9.6-.1l.9-.5c2.6-1.4 7-1.4 9.6-.1l1 .5c2.6 1.3 7 1.3 9.6-.1l.5-.3c2.6-1.4 7-1.4 9.6-.3l1 .5c2.7 1.3 7 1.2 9.7-.1l.8-.4c2.6-1.4 7-1.4 9.6 0l1.6.8c2.6 1.3 7 1.3 9.6 0l.8-.4c2.6-1.4 7-1.4 9.6 0l1 .5c2.7 1.3 7 1.3 9.6-.1l.9-.5c2.6-1.4 7-1.4 9.6-.1l1 .5c2.7 1.3 7 1.3 9.6-.1l.5-.3c2.6-1.4 7-1.6 9.6-.3l1 .5c2.7 1.3 7 1.2 9.7-.1l.8-.4c2.6-1.4-14.8-1.4-12.2 0l6 3"/><path class="st6" d="M42.5 65l5.6-3c2.6-1.4 7-1.4 9.6 0l1 .5c2.7 1.3 7 1.3 9.6-.1l.9-.5c2.6-1.4 7-1.4 9.6-.1l1 .5c2.6 1.3 7 1.3 9.6-.1l.5-.3c2.6-1.4 7-1.4 9.6-.3l1 .5c2.7 1.3 7 1.2 9.7-.1l.8-.4c2.6-1.4 7-1.4 9.6 0l1.6.8c2.6 1.3 7 1.3 9.6 0l.8-.4c2.6-1.4 7-1.4 9.6 0l1 .5c2.7 1.3 7 1.3 9.6-.1l.9-.5c2.6-1.4 7-1.4 9.6-.1l1 .5c2.7 1.3 7 1.3 9.6-.1l.5-.3c2.6-1.4 7-1.6 9.6-.3l1 .5c2.7 1.3 7 1.2 9.7-.1l.8-.4c2.6-1.4-14.8-1.4-12.2 0l6 3"/><path class="st6" d="M42.5 62.2l5.6-3c2.6-1.4 7-1.4 9.6 0l1 .5c2.7 1.3 7 1.3 9.6-.1l.9-.5c2.6-1.4 7-1.4 9.6-.1l1 .5c2.6 1.3 7 1.3 9.6-.1l.6-.4c2.6-1.4 7-1.4 9.6-.3l1 .5c2.7 1.3 7 1.2 9.7-.1l.8-.4c2.6-1.4 7-1.4 9.6 0l1.6.8c2.6 1.3 7 1.3 9.6 0l.8-.4c2.6-1.4 7-1.4 9.6 0l1 .5c2.7 1.3 7 1.3 9.6-.1l.9-.5c2.6-1.4 7-1.4 9.6-.1l1 .5c2.7 1.3 7 1.3 9.6-.1l.5-.3c2.6-1.4 7-1.6 9.6-.3l1 .5c2.7 1.3 7 1.2 9.7-.1l.8-.4c2.6-1.4-14.8-1.4-12.2 0l6 3"/><path class="st6" d="M42.5 59.3l5.6-3c2.6-1.4 7-1.4 9.6 0l1 .5c2.7 1.3 7 1.3 9.6-.1l.9-.5c2.6-1.4 7-1.4 9.6-.1l1 .5c2.6 1.3 7 1.3 9.6-.1l.5-.3c2.6-1.4 7-1.4 9.6-.3l1 .5c2.7 1.3 7 1.2 9.7-.1l.8-.4c2.6-1.4 7-1.4 9.6 0l1.6.8c2.6 1.3 7 1.3 9.6 0l.8-.4c2.6-1.4 7-1.4 9.6 0l1 .5c2.7 1.3 7 1.3 9.6-.1l.9-.5c2.6-1.4 7-1.4 9.6-.1l1 .5c2.7 1.3 7 1.3 9.6-.1l.5-.3c2.6-1.4 7-1.6 9.6-.3l1 .5c2.7 1.3 7 1.2 9.7-.1l.8-.4c2.6-1.4-14.8-1.4-12.2 0l6 3"/><path class="st6" d="M42.5 56.5l5.6-3c2.6-1.4 7-1.4 9.6 0l1 .5c2.7 1.3 7 1.3 9.6-.1l.9-.5c2.6-1.4 7-1.4 9.6-.1l1 .5c2.6 1.3 7 1.3 9.6-.1l.5-.3c2.6-1.4 7-1.4 9.6-.3l1 .5c2.7 1.3 7 1.2 9.7-.1l.8-.4c2.6-1.4 7-1.4 9.6 0l1.6.8c2.6 1.3 7 1.3 9.6 0l.8-.4c2.6-1.4 7-1.4 9.6 0l1 .5c2.7 1.3 7 1.3 9.6-.1l.9-.5c2.6-1.4 7-1.4 9.6-.1l1 .5c2.7 1.3 7 1.3 9.6-.1l.5-.3c2.6-1.4 7-1.6 9.6-.3l1 .5c2.7 1.3 7 1.2 9.7-.1l.8-.4c2.6-1.4-14.8-1.4-12.2 0l6 3"/><path class="st6" d="M42.5 53.6l5.6-3c2.6-1.4 7-1.4 9.6 0l1 .5c2.7 1.3 7 1.3 9.6-.1l.9-.5c2.6-1.4 7-1.4 9.6-.1l1 .5c2.6 1.3 7 1.3 9.6-.1l.5-.3c2.6-1.4 7-1.4 9.6-.3l1 .5c2.7 1.3 7 1.2 9.7-.1l.8-.4c2.6-1.4 7-1.4 9.6 0l1.6.8c2.6 1.3 7 1.3 9.6 0l.8-.4c2.6-1.4 7-1.4 9.6 0l1 .5c2.7 1.3 7 1.3 9.6-.1l.9-.5c2.6-1.4 7-1.4 9.6-.1l1 .5c2.7 1.3 7 1.3 9.6-.1l.5-.3c2.6-1.4 7-1.6 9.6-.3l1 .5c2.7 1.3 7 1.2 9.7-.1l.8-.4c2.6-1.4-14.8-1.4-12.2 0l6 3"/><path class="st6" d="M42.5 50.7l5.6-2.9c2.6-1.4 7-1.4 9.6 0l1 .5c2.7 1.3 7 1.3 9.6-.1l.9-.5c2.6-1.4 7-1.4 9.6-.1l1 .5c2.6 1.3 7 1.3 9.6-.1l.5-.3c2.6-1.4 7-1.4 9.6-.3l1 .5c2.7 1.3 7 1.2 9.7-.1l.8-.4c2.6-1.4 7-1.4 9.6 0l1.6.8c2.6 1.3 7 1.3 9.6 0l.8-.4c2.6-1.4 7-1.4 9.6 0l1 .5c2.7 1.3 7 1.3 9.6-.1l.9-.5c2.6-1.4 7-1.4 9.6-.1l1 .5c2.7 1.3 7 1.3 9.6-.1l.5-.3c2.6-1.4 7-1.6 9.6-.3l1 .5c2.7 1.3 7 1.2 9.7-.1l.8-.4c2.6-1.4-14.8-1.4-12.2 0l6 3"/><path class="st6" d="M42.5 47.9l5.6-2.9c2.6-1.4 7-1.4 9.6 0l1 .5c2.7 1.3 7 1.3 9.6-.1l.9-.5c2.6-1.4 7-1.4 9.6-.1l1 .5c2.6 1.3 7 1.3 9.6-.1l.5-.3c2.6-1.4 7-1.4 9.6-.3l1 .5c2.7 1.3 7 1.2 9.7-.1l.8-.4c2.6-1.4 7-1.4 9.6 0l1.6.8c2.6 1.3 7 1.3 9.6 0l.8-.4c2.6-1.4 7-1.4 9.6 0l1 .5c2.7 1.3 7 1.3 9.6-.1l.9-.5c2.6-1.4 7-1.4 9.6-.1l1 .5c2.7 1.3 7 1.3 9.6-.1l.5-.3c2.6-1.4 7-1.6 9.6-.3l1 .5c2.7 1.3 7 1.2 9.7-.1l.8-.4c2.6-1.4-14.8-1.4-12.2 0l6 3"/><path class="st6" d="M42.5 45l5.6-2.9c2.6-1.4 7-1.4 9.6 0l1 .5c2.7 1.3 7 1.3 9.6-.1l.9-.5c2.6-1.4 7-1.4 9.6-.1l1 .5c2.6 1.3 7 1.3 9.6-.1l.6-.3c2.6-1.4 7-1.4 9.6-.3l1 .5c2.7 1.3 7 1.2 9.7-.1l.8-.4c2.6-1.4 7-1.4 9.6 0l1.6.8c2.6 1.3 7 1.3 9.6 0l.8-.4c2.6-1.4 7-1.4 9.6 0l1 .5c2.7 1.3 7 1.3 9.6-.1l.9-.5c2.6-1.4 7-1.4 9.6-.1l1 .5c2.7 1.3 7 1.3 9.6-.1l.5-.3c2.6-1.4 7-1.6 9.6-.3l1 .5c2.7 1.3 7 1.2 9.7-.1l.8-.4c2.6-1.4-14.8-1.4-12.2 0l6 3"/></g><path id="SVGID_20_" class="st4" d="M69.8 87.2l13.4 15.6v77.4H39.8V106s-1.9-18.9 19.6-18.9l10.4.1z"/><defs><path id="SVGID_6_" d="M69.8 87.2l13.4 15.6v77.4H39.8V106s-1.9-18.9 19.6-18.9l10.4.1z"/></defs><defs><path id="SVGID_7_" d="M69.8 87.2l13.4 15.6v77.4H39.8V106s-1.9-18.9 19.6-18.9l10.4.1z"/></defs><defs><path id="SVGID_8_" d="M69.8 87.2l13.4 15.6v77.4H39.8V106s-1.9-18.9 19.6-18.9l10.4.1z"/></defs><clipPath id="SVGID_9_"><use xlink:href="#SVGID_6_" overflow="visible"/></clipPath><clipPath id="SVGID_10_" clip-path="url(#SVGID_9_)"><use xlink:href="#SVGID_7_" overflow="visible"/></clipPath><clipPath id="SVGID_11_" clip-path="url(#SVGID_10_)"><use xlink:href="#SVGID_8_" overflow="visible"/></clipPath><g class="st9"><path class="st6" d="M152.6 168.1l-5.6-3c-2.6-1.4-7-1.4-9.6 0l-1 .5c-2.6 1.3-7 1.3-9.6-.1l-.9-.5c-2.6-1.4-7-1.4-9.6-.1l-1 .5c-2.6 1.3-7 1.3-9.6-.1l-.5-.3c-2.6-1.4-7-1.4-9.6-.3l-1 .5c-2.7 1.3-7 1.3-9.7-.1l-.8-.4c-2.6-1.4-7-1.4-9.6 0l-1.6.8c-2.6 1.3-7 1.3-9.6 0l-.8-.4c-2.6-1.4-7-1.4-9.6 0l-1 .5c-2.7 1.3-7 1.3-9.6-.1l-.9-.5c-2.6-1.4-7-1.4-9.6-.1l-1 .5c-2.7 1.3-7 1.3-9.6-.1l-.5-.3c-2.6-1.4-7-1.4-9.6-.3l-1 .5c-2.7 1.3-7 1.3-9.7-.1l-.8-.4c-2.6-1.4-7-1.4-9.6 0l-6 3"/><path class="st6" d="M152.6 165.2l-5.6-3c-2.6-1.4-7-1.4-9.6 0l-1 .5c-2.6 1.3-7 1.3-9.6-.1l-.9-.5c-2.6-1.4-7-1.4-9.6-.1l-1 .5c-2.6 1.3-7 1.3-9.6-.1l-.5-.3c-2.6-1.4-7-1.4-9.6-.3l-1 .5c-2.7 1.3-7 1.3-9.7-.1l-.8-.4c-2.6-1.4-7-1.4-9.6 0l-1.6.8c-2.6 1.3-7 1.3-9.6 0l-.8-.4c-2.6-1.4-7-1.4-9.6 0l-1 .5c-2.7 1.3-7 1.3-9.6-.1l-.9-.5c-2.6-1.4-7-1.4-9.6-.1l-1 .5c-2.7 1.3-7 1.3-9.6-.1l-.5-.3c-2.6-1.4-7-1.4-9.6-.3l-1 .5c-2.7 1.3-7 1.3-9.7-.1l-.8-.4c-2.6-1.4-7-1.4-9.6 0l-6 3"/></g><g class="st9"><path class="st6" d="M152.8 162.1l-5.6-2.9c-2.6-1.4-7-1.4-9.6 0l-1 .5c-2.7 1.3-7 1.3-9.6-.1l-.9-.5c-2.6-1.4-7-1.4-9.6-.1l-1 .5c-2.6 1.3-7 1.3-9.6-.1l-.5-.3c-2.6-1.4-7-1.4-9.6-.1l-1 .5c-2.7 1.3-7 1.3-9.7-.1l-.8-.4c-2.6-1.4-7-1.4-9.6 0l-1.6.8c-2.6 1.3-7 1.3-9.6 0l-.8-.4c-2.6-1.4-7-1.4-9.6 0l-1 .5c-2.7 1.3-7 1.3-9.6-.1l-.9-.5c-2.6-1.4-7-1.4-9.6-.1l-1 .5c-2.7 1.3-7 1.3-9.6-.1l-.5-.3c-2.6-1.4-7-1.4-9.6-.1l-1 .5c-2.7 1.3-7 1.3-9.7-.1l-.8-.4c-2.6-1.4-7-1.4-9.6 0l-6 3"/></g><g class="st9"><path class="st6" d="M152.4 82.2l-5.6-3c-2.6-1.4-7-1.4-9.6 0l-1 .5c-2.6 1.3-7 1.3-9.6-.1l-.9-.5c-2.6-1.4-7-1.4-9.6-.1l-1 .5c-2.7 1.3-7 1.3-9.6-.1l-.5-.3c-2.6-1.4-7-1.4-9.6-.3l-1 .5c-2.7 1.3-7 1.3-9.7-.1l-.8-.4c-2.6-1.4-7-1.4-9.6 0l-1.6.8c-2.6 1.3-7 1.3-9.6 0l-.8-.4c-2.6-1.4-7-1.4-9.6 0l-1 .5C49 81 44.6 81 42 79.6l-.9-.6c-2.6-1.4-7-1.4-9.6-.1l-1 .5c-2.7 1.3-7 1.3-9.6-.1l-.6-.3c-2.6-1.4-7-1.4-9.6-.3l-1 .5c-2.7 1.3-7 1.3-9.7-.1l-.8-.4c-2.6-1.4-7-1.4-9.6 0l-6 3"/><path class="st6" d="M152.4 79.3l-5.6-3c-2.6-1.4-7-1.4-9.6 0l-1 .5c-2.6 1.3-7 1.3-9.6-.1l-.9-.5c-2.6-1.4-7-1.4-9.6-.1l-1 .5c-2.7 1.3-7 1.3-9.6-.1l-.5-.3c-2.6-1.4-7-1.4-9.6-.3l-1 .5c-2.7 1.3-7 1.3-9.7-.1l-.8-.4c-2.6-1.4-7-1.4-9.6 0l-1.6.8c-2.6 1.3-7 1.3-9.6 0l-.8-.4c-2.6-1.4-7-1.4-9.6 0l-1 .5c-2.6 1.3-7 1.3-9.6-.1l-.9-.5c-2.6-1.4-7-1.4-9.6-.1l-1 .5c-2.7 1.3-7 1.3-9.6-.1l-.5-.3c-2.6-1.4-7-1.4-9.6-.3l-1 .5c-2.7 1.3-7 1.3-9.7-.1l-.8-.4c-2.6-1.4-7-1.4-9.6 0l-6 3"/><path class="st6" d="M152.4 76.4l-5.6-3c-2.6-1.4-7-1.4-9.6 0l-1 .5c-2.6 1.3-7 1.3-9.6-.1l-.9-.5c-2.6-1.4-7-1.4-9.6-.1l-1 .5c-2.7 1.3-7 1.3-9.6-.1l-.5-.3c-2.6-1.4-7-1.4-9.6-.3l-1 .5c-2.7 1.3-7 1.3-9.7-.1l-.8-.4c-2.6-1.4-7-1.4-9.6 0l-1.6.8c-2.6 1.3-7 1.3-9.6 0l-.8-.4c-2.6-1.4-7-1.4-9.6 0l-1 .5c-2.6 1.3-7 1.3-9.6-.1l-.9-.5c-2.6-1.4-7-1.4-9.6-.1l-1 .5c-2.7 1.3-7 1.3-9.6-.1l-.5-.3c-2.6-1.4-7-1.4-9.6-.3l-1 .5c-2.7 1.3-7 1.3-9.7-.1l-.8-.4c-2.6-1.4-7-1.4-9.6 0l-6 3"/><path class="st6" d="M152.4 73.6l-5.6-3c-2.6-1.4-7-1.4-9.6 0l-1 .5c-2.6 1.3-7 1.3-9.6-.1l-.9-.5c-2.6-1.4-7-1.4-9.6-.1l-1 .5c-2.7 1.3-7 1.3-9.6-.1l-.5-.3c-2.6-1.4-7-1.4-9.6-.3l-1 .5c-2.7 1.3-7 1.3-9.7-.1l-.8-.4c-2.6-1.4-7-1.4-9.6 0l-1.7.8c-2.6 1.3-7 1.3-9.6 0l-.8-.4c-2.6-1.4-7-1.4-9.6 0l-1 .5c-2.6 1.3-7 1.3-9.6-.1l-.9-.5c-2.6-1.4-7-1.4-9.6-.1l-1 .5c-2.7 1.3-7 1.3-9.6-.1l-.5-.3c-2.6-1.4-7-1.4-9.6-.3l-1 .5c-2.7 1.3-7 1.3-9.7-.1l-.8-.4c-2.6-1.4-7-1.4-9.6 0l-6 3"/><path class="st6" d="M152.4 70.7l-5.6-3c-2.6-1.4-7-1.4-9.6 0l-1 .5c-2.6 1.3-7 1.3-9.6-.1l-.9-.5c-2.6-1.4-7-1.4-9.6-.1l-1 .5c-2.7 1.3-7 1.3-9.6-.1l-.5-.3c-2.6-1.4-7-1.4-9.6-.3l-1 .5c-2.7 1.3-7 1.2-9.7-.1l-.8-.4c-2.6-1.4-7-1.4-9.6 0l-1.6.8c-2.6 1.3-7 1.3-9.6 0l-.8-.4c-2.6-1.4-7-1.4-9.6 0l-1 .5c-2.6 1.3-7 1.3-9.6-.1l-.9-.5c-2.6-1.4-7-1.4-9.6-.1l-1 .5c-2.7 1.3-7 1.3-9.6-.1l-.5-.3c-2.6-1.4-7-1.4-9.6-.3l-1 .5c-2.7 1.3-7 1.2-9.7-.1l-.8-.4c-2.6-1.4-7-1.4-9.6 0l-6 3"/><path class="st6" d="M152.4 67.9l-5.6-3c-2.6-1.4-7-1.4-9.6 0l-1 .5c-2.6 1.3-7 1.3-9.6-.1l-.9-.5c-2.6-1.4-7-1.4-9.6-.1l-1 .5c-2.7 1.3-7 1.3-9.6-.1l-.5-.3c-2.6-1.4-7-1.4-9.6-.3l-1 .5c-2.7 1.3-7 1.2-9.7-.1l-.8-.4c-2.6-1.4-7-1.4-9.6 0l-1.6.8c-2.6 1.3-7 1.3-9.6 0l-.8-.4c-2.6-1.4-7-1.4-9.6 0l-1 .5c-2.6 1.3-7 1.3-9.6-.1l-.9-.5c-2.6-1.4-7-1.4-9.6-.1l-1 .5c-2.7 1.3-7 1.3-9.6-.1l-.5-.3c-2.6-1.4-7-1.4-9.6-.3l-1 .5c-2.7 1.3-7 1.2-9.7-.1l-.8-.4c-2.6-1.4-7-1.4-9.6 0l-6 3"/><path class="st6" d="M152.4 65l-5.6-3c-2.6-1.4-7-1.4-9.6 0l-1 .5c-2.6 1.3-7 1.3-9.6-.1l-.9-.5c-2.6-1.4-7-1.4-9.6-.1l-1 .5c-2.7 1.3-7 1.3-9.6-.1l-.5-.3c-2.6-1.4-7-1.4-9.6-.3l-1 .5c-2.7 1.3-7 1.2-9.7-.1l-.8-.4c-2.6-1.4-7-1.4-9.6 0l-1.6.8c-2.6 1.3-7 1.3-9.6 0l-.9-.4c-2.6-1.4-7-1.4-9.6 0l-1 .5c-2.6 1.3-7 1.3-9.6-.1l-.9-.5c-2.6-1.4-7-1.4-9.6-.1l-1 .5c-2.7 1.3-7 1.3-9.6-.1l-.5-.3c-2.6-1.4-7-1.4-9.6-.3l-1 .5c-2.7 1.3-7 1.2-9.7-.1l-.8-.4c-2.6-1.4-7-1.4-9.6 0l-6 3"/><path class="st6" d="M152.4 62.2l-5.6-3c-2.6-1.4-7-1.4-9.6 0l-1 .5c-2.6 1.3-7 1.3-9.6-.1l-.9-.5c-2.6-1.4-7-1.4-9.6-.1l-1 .5c-2.7 1.3-7 1.3-9.6-.1l-.5-.3c-2.6-1.4-7-1.4-9.6-.3l-1 .5c-2.7 1.3-7 1.2-9.7-.1l-.8-.4c-2.6-1.4-7-1.4-9.6 0l-1.6.8c-2.6 1.3-7 1.3-9.6 0l-.8-.4c-2.6-1.4-7-1.4-9.6 0l-1 .5C49 61 44.6 61 42 59.6l-.9-.6c-2.6-1.4-7-1.4-9.6-.1l-1 .5c-2.7 1.3-7 1.3-9.6-.1l-.6-.3c-2.6-1.4-7-1.4-9.6-.3l-1 .5c-2.7 1.3-7 1.2-9.7-.1l-.8-.4c-2.6-1.4-7-1.4-9.6 0l-6 3"/><path class="st6" d="M152.4 59.3l-5.6-3c-2.6-1.4-7-1.4-9.6 0l-1 .5c-2.6 1.3-7 1.3-9.6-.1l-.9-.5c-2.6-1.4-7-1.4-9.6-.1l-1 .5c-2.7 1.3-7 1.3-9.6-.1l-.5-.3c-2.6-1.4-7-1.4-9.6-.3l-1 .5c-2.7 1.3-7 1.2-9.7-.1l-.8-.4c-2.6-1.4-7-1.4-9.6 0l-1.6.8c-2.6 1.3-7 1.3-9.6 0l-.8-.4c-2.6-1.4-7-1.4-9.6 0l-1 .5c-2.6 1.3-7 1.3-9.6-.1l-.9-.5c-2.6-1.4-7-1.4-9.6-.1l-1 .5c-2.7 1.3-7 1.3-9.6-.1l-.5-.3c-2.6-1.4-7-1.6-9.6-.3l-1 .5c-2.7 1.3-7 1.2-9.7-.1l-.8-.4c-2.6-1.4-7-1.4-9.6 0l-6 3"/><path class="st6" d="M152.4 56.5l-5.6-3c-2.6-1.4-7-1.4-9.6 0l-1 .5c-2.6 1.3-7 1.3-9.6-.1l-.9-.5c-2.6-1.4-7-1.4-9.6-.1l-1 .5c-2.7 1.3-7 1.3-9.6-.1l-.5-.3c-2.6-1.4-7-1.4-9.6-.3l-1 .5c-2.7 1.3-7 1.2-9.7-.1l-.8-.4c-2.6-1.4-7-1.4-9.6 0l-1.6.8c-2.6 1.3-7 1.3-9.6 0l-.8-.4c-2.6-1.4-7-1.4-9.6 0l-1 .5c-2.6 1.3-7 1.3-9.6-.1l-.9-.5c-2.6-1.4-7-1.4-9.6-.1l-1 .5c-2.7 1.3-7 1.3-9.6-.1l-.5-.3c-2.6-1.4-7-1.6-9.6-.3l-1 .5c-2.7 1.3-7 1.2-9.7-.1l-.8-.4c-2.6-1.4-7-1.4-9.6 0l-6 3"/><path class="st6" d="M152.4 53.6l-5.6-3c-2.6-1.4-7-1.4-9.6 0l-1 .5c-2.6 1.3-7 1.3-9.6-.1l-.9-.5c-2.6-1.4-7-1.4-9.6-.1l-1 .5c-2.7 1.3-7 1.3-9.6-.1l-.5-.3c-2.6-1.4-7-1.4-9.6-.3l-1 .5c-2.7 1.3-7 1.2-9.7-.1l-.8-.4c-2.6-1.4-7-1.4-9.6 0l-1.7.8c-2.6 1.3-7 1.3-9.6 0l-.8-.4c-2.6-1.4-7-1.4-9.6 0l-1 .5c-2.6 1.3-7 1.3-9.6-.1l-.9-.5c-2.6-1.4-7-1.4-9.6-.1l-1 .5c-2.7 1.3-7 1.3-9.6-.1l-.5-.3c-2.6-1.4-7-1.6-9.6-.3l-1 .5c-2.7 1.3-7 1.2-9.7-.1l-.8-.4c-2.6-1.4-7-1.4-9.6 0l-6 3"/><path class="st6" d="M152.4 50.7l-5.6-2.9c-2.6-1.4-7-1.4-9.6 0l-1 .5c-2.6 1.3-7 1.3-9.6-.1l-.9-.5c-2.6-1.4-7-1.4-9.6-.1l-1 .5c-2.7 1.3-7 1.3-9.6-.1l-.5-.3c-2.6-1.4-7-1.4-9.6-.3l-1 .5c-2.7 1.3-7 1.2-9.7-.1l-.8-.4c-2.6-1.4-7-1.4-9.6 0l-1.6.8c-2.6 1.3-7 1.3-9.6 0l-.8-.4c-2.6-1.4-7-1.4-9.6 0l-1 .5c-2.6 1.3-7 1.3-9.6-.1l-.9-.5c-2.6-1.4-7-1.4-9.6-.1l-1 .5c-2.7 1.3-7 1.3-9.6-.1l-.5-.3c-2.6-1.4-7-1.6-9.6-.3l-1 .5c-2.7 1.3-7 1.2-9.7-.1l-.8-.4c-2.6-1.4-7-1.4-9.6 0l-6 3"/><path class="st6" d="M152.4 47.9l-5.6-2.9c-2.6-1.4-7-1.4-9.6 0l-1 .5c-2.6 1.3-7 1.3-9.6-.1l-.9-.5c-2.6-1.4-7-1.4-9.6-.1l-1 .5c-2.7 1.3-7 1.3-9.6-.1l-.5-.3c-2.6-1.4-7-1.4-9.6-.3l-1 .5c-2.7 1.3-7 1.2-9.7-.1l-.8-.4c-2.6-1.4-7-1.4-9.6 0l-1.6.8c-2.6 1.3-7 1.3-9.6 0l-.9-.4c-2.6-1.4-7-1.4-9.6 0l-1 .5c-2.6 1.3-7 1.3-9.6-.1l-.9-.5c-2.6-1.4-7-1.4-9.6-.1l-1 .5c-2.7 1.3-7 1.3-9.6-.1l-.5-.3c-2.6-1.4-7-1.6-9.6-.3l-1 .5c-2.7 1.3-7 1.2-9.7-.1l-.8-.4c-2.6-1.4-7-1.4-9.6 0l-6 3"/><path class="st6" d="M152.4 45l-5.6-2.9c-2.6-1.4-7-1.4-9.6 0l-1 .5c-2.6 1.3-7 1.3-9.6-.1l-.9-.5c-2.6-1.4-7-1.4-9.6-.1l-1 .5c-2.7 1.3-7 1.3-9.6-.1l-.5-.3c-2.6-1.4-7-1.4-9.6-.3l-1 .5c-2.7 1.3-7 1.2-9.7-.1l-.8-.4c-2.6-1.4-7-1.4-9.6 0l-1.6.8c-2.6 1.3-7 1.3-9.6 0l-.8-.4c-2.6-1.4-7-1.4-9.6 0l-1 .5C49 44 44.6 44 42 42.6l-.9-.6c-2.6-1.4-7-1.4-9.6-.1l-1 .5c-2.7 1.3-7 1.3-9.6-.1l-.6-.3c-2.6-1.4-7-1.6-9.6-.3l-1 .5c-2.7 1.3-7 1.2-9.7-.1l-.8-.4c-2.6-1.4-7-1.4-9.6 0l-6 3"/></g><g class="st9"><path id="SVGID_1_" d="M69.8 87.2l13.4 15.6v77.4H39.8V106s-1.9-18.9 19.6-18.9l10.4.1z" fill="none" stroke="#002d78" stroke-width=".5" stroke-miterlimit="10"/></g></g><path class="st1" d="M99.5 19.9c12.7 0 12.7 12.7 12.7 12.7l-.1 30.9v30.1c0 1.2-28.9 8-28.9 8l-12-14.3.1-7.3h-1.9c-6.5 0-7.4-4.2-7.4-11.2 0-3.1.3-12.6.3-12.6l-5.5-.3 5.5-12.3V20c-.2-.1 22.1-.1 37.2-.1m0-2.5H59.6v25.8L54.4 55 53 58.1l3.5.1 3.1.1c0 3-.1 8.2-.1 10.3 0 4.9.4 8.7 2.9 11.2 1.6 1.6 3.6 2.3 6.5 2.5l-.1 4.8v.9l.5.6 11.9 14.3.9 1.2 1.4-.4c.1 0 7.3-1.7 14.5-3.6 4.3-1 7.7-1.9 10-2.7 4.2-1.3 6.2-1.8 6.2-4V63.2l.1-30.9c.4.1.1-14.9-14.8-14.9z"/></svg>