<?xml version="1.0" encoding="utf-8"?>
<!-- Generator: Adobe Illustrator 25.2.3, SVG Export Plug-In . SVG Version: 6.00 Build 0)  -->
<svg version="1.1" id="Layer_1" xmlns="http://www.w3.org/2000/svg" xmlns:xlink="http://www.w3.org/1999/xlink" x="0px" y="0px"
	 viewBox="0 0 276 276" style="enable-background:new 0 0 276 276;" xml:space="preserve">
<style type="text/css">
	.st0{fill:#FFFFFF;}
</style>
<path class="st0" d="M137.4,0C61.2,0.3-0.3,62.4,0,138.6S62.4,276.3,138.6,276S276.3,213.6,276,137.4l0,0
	C275.7,61.2,213.6-0.3,137.4,0z M138.7,265.7c-70.5,0.3-127.9-56.5-128.3-127C10,68.2,66.9,10.8,137.4,10.4l0,0
	c70.5-0.3,127.9,56.5,128.2,127C266,207.9,209.1,265.3,138.7,265.7z"/>
<path class="st0" d="M202.7,92.4c-9.3-2.7-18.9-6.5-28.6-10.3l0,0l0,0c0-0.1,0-0.1-0.1-0.2c-0.2-0.6-0.5-1.3-0.9-2.1
	c-5.9-12.5-21.7-14-34.8-9.9l0,0h0.1h-0.1c-11.4-2.7-22.6-3.6-33.4-1C58,81.8,50.2,104.6,48.2,132.1c-2.5,30.3-3.9,52.7-15.4,78.4
	c22.4,35.9,75.1,63.8,123.8,53.8c1.3-0.2,2.6-0.5,3.8-0.7c0,0,0,0,0-0.1l0,0c-5.3-37.3,27.4-73.9,45.7-92.6
	c4.1-4.2,10.5-9.9,16.4-16.1C246.8,132.5,251.8,105.7,202.7,92.4z M208.3,125.9c3,0,5.4,2.4,5.4,5.3c0,3-2.4,5.4-5.3,5.4
	c-3,0-5.4-2.4-5.4-5.3C202.9,128.3,205.3,125.9,208.3,125.9z M119.9,131.3c-13.6,0-24.7-11-24.7-24.7c0-13.6,11-24.7,24.7-24.7
	c13.6,0,24.7,11,24.7,24.7l0,0C144.6,120.2,133.6,131.3,119.9,131.3z M211.7,156.5c-7.6,3.6-15.5,6.5-23.7,8.6s-16.7,3.7-25.3,2.9
	s-17.4-3.7-23.1-10.2l0.3-0.3c7,4.5,15.1,6.1,23.1,6.4c8.1,0.3,16.3-0.4,24.3-2c8.1-1.7,16-4.1,23.6-7.3s15.2-6.8,21.7-12l0.3,0.3
	C226.6,148.7,219.2,152.8,211.7,156.5z"/>
</svg>
