<?xml version="1.0" encoding="utf-8"?>
<!-- Generator: Adobe Illustrator 21.1.0, SVG Export Plug-In . SVG Version: 6.00 Build 0)  -->
<svg version="1.1" id="Layer_1" xmlns="http://www.w3.org/2000/svg" xmlns:xlink="http://www.w3.org/1999/xlink" x="0px" y="0px"
	 viewBox="0 0 923.1 252.3" style="enable-background:new 0 0 923.1 252.3;" xml:space="preserve">
<style type="text/css">
	.st0{fill:#7289DA;}
</style>
<g>
	<path class="st0" d="M134.7,105.8c-7.3,0-13,6.2-13,14s5.9,14,13,14c7.3,0,13-6.2,13-14S141.8,105.8,134.7,105.8z M88.3,105.8
		c-7.3,0-13,6.2-13,14s5.9,14,13,14c7.3,0,13-6.2,13-14C101.4,112.1,95.5,105.8,88.3,105.8z"/>
	<path class="st0" d="M196.5,0H26.1C11.7,0,0,11.7,0,26.1v170.5c0,14.4,11.7,26.1,26.1,26.1h144.3l-6.7-23.3l16.3,15l15.4,14.1
		l27.5,23.8V26.1C222.6,11.7,210.9,0,196.5,0z M147.4,164.7c0,0-4.6-5.5-8.4-10.2c16.7-4.7,23-15,23-15c-5.2,3.4-10.2,5.9-14.6,7.5
		c-6.4,2.7-12.5,4.3-18.4,5.5c-12.2,2.3-23.4,1.7-32.9-0.1c-7.3-1.4-13.5-3.3-18.7-5.5c-2.9-1.1-6.1-2.5-9.3-4.3
		c-0.4-0.3-0.8-0.4-1.1-0.6c-0.3-0.1-0.4-0.3-0.5-0.3c-2.3-1.3-3.6-2.2-3.6-2.2s6.1,10.1,22.3,14.9c-3.8,4.8-8.5,10.4-8.5,10.4
		c-28.1-0.9-38.8-19.2-38.8-19.2c0-40.6,18.3-73.5,18.3-73.5c18.3-13.6,35.6-13.2,35.6-13.2l1.3,1.5C70.1,66.9,59.7,77,59.7,77
		s2.8-1.5,7.5-3.6c13.6-6,24.4-7.5,28.9-8c0.8-0.1,1.4-0.3,2.2-0.3c7.8-1,16.5-1.3,25.7-0.3c12.1,1.4,25.1,5,38.3,12.1
		c0,0-10.1-9.5-31.7-16l1.8-2c0,0,17.4-0.4,35.6,13.2c0,0,18.3,32.9,18.3,73.5C186.2,145.5,175.6,163.9,147.4,164.7z M339.5,54.4
		h-42.2v47.5l28.1,25.3V81.2h15c9.5,0,14.2,4.6,14.2,12v35.2c0,7.4-4.5,12.3-14.2,12.3h-43.3v26.8h42.2
		c22.6,0.1,43.9-11.2,43.9-37.1V92.5C383.4,66,362.2,54.4,339.5,54.4L339.5,54.4z M560.9,130.4V91.5c0-14,25.2-17.2,32.8-3.2
		l23.3-9.4c-9.2-20.1-25.8-26-39.7-26c-22.6,0-45,13.1-45,38.5v38.9c0,25.7,22.4,38.5,44.5,38.5c14.2,0,31.3-7,40.7-25.3l-24.9-11.4
		C586.5,147.8,560.9,144,560.9,130.4L560.9,130.4z M483.9,96.8c-8.8-1.9-14.6-5.1-15-10.6c0.5-13.1,20.7-13.6,32.6-1l18.7-14.4
		c-11.7-14.2-24.9-18.1-38.5-18.1c-20.7,0-40.8,11.7-40.8,33.8c0,21.5,16.5,33.1,34.7,35.9c9.3,1.3,19.6,5,19.3,11.3
		c-0.8,12.1-25.7,11.4-37-2.3l-18.1,16.9c10.6,13.6,24.9,20.5,38.4,20.5c20.7,0,43.8-12,44.7-33.8C524.1,107.5,504,100.5,483.9,96.8
		L483.9,96.8z M398.7,167.4h28.5v-113h-28.5V167.4z M879.2,54.4H837v47.5l28.1,25.3V81.2h15c9.5,0,14.2,4.6,14.2,12v35.2
		c0,7.4-4.5,12.3-14.2,12.3h-43.3v26.8h42.4c22.6,0.1,43.9-11.2,43.9-37.1V92.5C923.1,66,901.8,54.4,879.2,54.4z M672,52.9
		c-23.4,0-46.7,12.7-46.7,38.8v38.5c0,25.8,23.4,38.8,46.9,38.8c23.4,0,46.7-13,46.7-38.8V91.7C718.9,65.8,695.4,52.9,672,52.9z
		 M690.3,130.3c0,8.1-9.2,12.3-18.2,12.3c-9.2,0-18.3-3.9-18.3-12.3V91.7c0-8.3,8.9-12.7,17.8-12.7c9.3,0,18.7,3.9,18.7,12.7V130.3z
		 M821.2,91.7c-0.6-26.5-18.7-37.1-42-37.1H734v113h28.9v-35.9h5.1l26.2,35.9h35.6L799,128.7C812.7,124.4,821.2,112.6,821.2,91.7z
		 M779.7,107h-16.8V81.2h16.8C797.6,81.2,797.6,107,779.7,107z"/>
</g>
</svg>
