<?xml version="1.0" encoding="UTF-8"?>
<svg xmlns="http://www.w3.org/2000/svg" xmlns:xlink="http://www.w3.org/1999/xlink" width="596pt" height="152pt" viewBox="0 0 596 152" version="1.1">
<defs>
<linearGradient id="linear0" gradientUnits="userSpaceOnUse" x1="28.7706" y1="18.9793" x2="45.6297" y2="18.9793" gradientTransform="matrix(3.887802,0,0,3.889809,0,0.537709)">
<stop offset="0" style="stop-color:rgb(0%,60.784314%,100%);stop-opacity:1;"/>
<stop offset="0.00947404" style="stop-color:rgb(0%,60.784314%,100%);stop-opacity:1;"/>
<stop offset="0.9988" style="stop-color:rgb(0%,90.980392%,100%);stop-opacity:1;"/>
<stop offset="1" style="stop-color:rgb(0%,90.980392%,100%);stop-opacity:1;"/>
</linearGradient>
<linearGradient id="linear1" gradientUnits="userSpaceOnUse" x1="0" y1="19.165" x2="44.0446" y2="19.165" gradientTransform="matrix(3.887802,0,0,3.889809,0,0.537709)">
<stop offset="0" style="stop-color:rgb(0%,17.647059%,47.058824%);stop-opacity:1;"/>
<stop offset="0.2287" style="stop-color:rgb(0%,17.647059%,47.058824%);stop-opacity:1;"/>
<stop offset="1" style="stop-color:rgb(0.392157%,30.980392%,74.117647%);stop-opacity:1;"/>
</linearGradient>
</defs>
<g id="surface1">
<path style=" stroke:none;fill-rule:nonzero;fill:rgb(0.392157%,6.27451%,8.627451%);fill-opacity:1;" d="M 323.078125 83 C 323.078125 86.503906 321.910156 89.226562 319.964844 91.171875 C 317.632812 93.113281 314.910156 93.894531 311.800781 93.894531 C 308.691406 93.894531 305.582031 93.113281 303.636719 91.171875 C 301.304688 89.613281 300.527344 86.890625 300.527344 83 L 300.527344 52.660156 L 289.253906 52.660156 L 289.253906 85.722656 C 289.253906 91.171875 291.585938 95.839844 295.863281 99.339844 C 300.136719 103.230469 305.582031 104.785156 312.191406 104.785156 C 318.800781 104.785156 324.242188 102.839844 328.519531 99.339844 C 332.796875 95.449219 335.128906 91.171875 335.128906 85.722656 L 335.128906 52.660156 L 323.855469 52.660156 L 323.855469 83 Z M 323.078125 83 "/>
<path style=" stroke:none;fill-rule:nonzero;fill:rgb(0.392157%,6.27451%,8.627451%);fill-opacity:1;" d="M 382.171875 64.332031 C 386.449219 64.332031 390.335938 65.496094 393.835938 68.21875 L 394.222656 68.609375 L 402 60.441406 L 401.609375 60.050781 C 396.167969 55.382812 389.945312 53.050781 382.171875 53.050781 C 374.785156 53.050781 368.5625 55.773438 363.507812 60.441406 C 358.457031 65.496094 356.121094 71.722656 355.734375 79.113281 C 355.734375 86.503906 358.457031 92.726562 363.121094 97.78125 C 368.175781 102.839844 374.394531 105.171875 381.78125 105.171875 C 389.167969 105.171875 395.777344 102.839844 401.222656 98.171875 L 401.609375 97.78125 L 393.835938 89.613281 L 393.445312 90.003906 C 390.335938 92.726562 386.449219 93.894531 381.78125 93.894531 C 377.503906 93.894531 373.617188 92.726562 370.894531 90.003906 C 368.175781 87.28125 366.621094 83.78125 366.621094 79.113281 C 366.621094 74.832031 368.175781 71.332031 370.507812 68.609375 C 374.394531 65.496094 377.894531 64.332031 382.171875 64.332031 "/>
<path style=" stroke:none;fill-rule:nonzero;fill:rgb(0.392157%,6.27451%,8.627451%);fill-opacity:1;" d="M 423.382812 63.550781 L 440.488281 63.550781 L 440.488281 105.171875 L 451.761719 105.171875 L 451.761719 63.550781 L 469.257812 63.550781 L 469.257812 53.050781 L 423.382812 53.050781 Z M 423.382812 63.550781 "/>
<path style=" stroke:none;fill-rule:nonzero;fill:rgb(0.392157%,6.27451%,8.627451%);fill-opacity:1;" d="M 523.296875 83 C 523.296875 86.503906 522.132812 89.226562 520.1875 91.171875 C 517.855469 92.726562 515.132812 93.894531 512.023438 93.894531 C 508.914062 93.894531 505.804688 93.113281 503.859375 91.171875 C 501.527344 89.613281 500.75 86.890625 500.75 83 L 500.75 52.660156 L 489.472656 52.660156 L 489.472656 85.722656 C 489.472656 91.171875 491.808594 95.839844 496.082031 99.339844 C 500.359375 103.230469 505.804688 104.785156 512.414062 104.785156 C 519.023438 104.785156 524.464844 102.839844 528.742188 99.339844 C 533.019531 95.449219 535.351562 91.171875 535.351562 85.722656 L 535.351562 52.660156 L 524.074219 52.660156 L 524.074219 83 Z M 523.296875 83 "/>
<path style=" stroke:none;fill-rule:nonzero;fill:rgb(0.392157%,6.27451%,8.627451%);fill-opacity:1;" d="M 590.167969 77.945312 C 586.667969 75.609375 582.394531 74.054688 578.117188 73.667969 C 574.226562 72.886719 571.507812 72.109375 570.730469 70.941406 C 569.5625 69.777344 569.953125 68.21875 570.730469 66.664062 C 571.894531 65.109375 574.226562 63.941406 578.117188 63.941406 C 582.003906 63.941406 585.113281 65.109375 587.445312 67.832031 L 587.835938 68.21875 L 595.609375 60.441406 L 595.222656 60.050781 C 592.890625 57.71875 590.167969 56.160156 587.835938 54.996094 C 585.113281 53.828125 581.226562 53.050781 576.5625 53.050781 C 572.285156 53.050781 568.007812 54.605469 564.121094 57.328125 C 560.230469 60.050781 557.898438 63.941406 557.898438 68.609375 C 557.898438 73.667969 559.84375 77.554688 563.34375 79.5 C 566.839844 81.445312 570.730469 83 575.007812 83.390625 C 579.28125 83.78125 582.003906 84.945312 583.171875 86.890625 C 584.335938 88.835938 584.335938 90.390625 583.171875 91.949219 C 582.003906 93.503906 579.28125 94.671875 575.007812 94.671875 C 569.5625 94.28125 566.0625 92.726562 563.730469 90.003906 L 563.34375 89.613281 L 555.566406 97.394531 L 555.957031 97.78125 C 558.289062 100.117188 561.011719 102.0625 564.507812 103.230469 C 567.617188 104.785156 571.894531 105.171875 576.5625 105.171875 C 581.613281 105.171875 586.28125 103.617188 590.167969 100.503906 C 594.054688 97.394531 596 93.894531 596 89.613281 C 596 84.167969 594.054688 80.277344 590.167969 77.945312 "/>
<path style=" stroke:none;fill-rule:nonzero;fill:rgb(0.392157%,6.27451%,8.627451%);fill-opacity:1;" d="M 248.042969 53.050781 L 237.15625 53.050781 L 215.773438 105.171875 L 228.214844 105.171875 L 231.324219 97.394531 L 241.042969 72.886719 L 242.988281 68.609375 L 249.597656 86.113281 L 256.984375 105.171875 L 269.035156 105.171875 Z M 248.042969 53.050781 "/>
<path style=" stroke:none;fill-rule:nonzero;fill:url(#linear0);" d="M 111.96875 46.4375 L 177.285156 46.4375 L 144.238281 102.449219 Z M 111.96875 46.4375 "/>
<path style=" stroke:none;fill-rule:nonzero;fill:url(#linear1);" d="M 143.847656 102.449219 L 78.921875 102.449219 L 111.578125 46.046875 L 85.53125 0.539062 L 42.765625 75.222656 L 0 149.515625 L 171.0625 149.515625 "/>
</g>
</svg>
