<?xml version="1.0" encoding="utf-8"?>
<!-- Generator: Adobe Illustrator 21.1.0, SVG Export Plug-In . SVG Version: 6.00 Build 0)  -->
<svg version="1.1" id="Layer_1" xmlns="http://www.w3.org/2000/svg" xmlns:xlink="http://www.w3.org/1999/xlink" x="0px" y="0px"
	 viewBox="0 0 747 246" style="enable-background:new 0 0 747 246;" xml:space="preserve">
<style type="text/css">
	.st0{fill:#282829;}
	.st1{clip-path:url(#SVGID_2_);}
	.st2{fill:#E6E6E6;}
	.st3{fill:#0B2537;}
	.st4{fill:#FFFFFF;}
	.st5{fill:#171C20;}
	.st6{fill:#062943;}
	.st7{fill:#999999;}
	.st8{fill:#C3B56E;stroke:#C3B56E;stroke-width:2;stroke-miterlimit:10;}
	.st9{fill:#ECE9D9;}
	.st10{fill:#C3B56E;}
	.st11{fill:#464646;}
	.st12{fill:#1A1A1A;}
	.st13{fill:#F6ECDD;}
	.st14{fill:#FFC614;}
	.st15{fill:#A4986B;}
</style>
<g>
	<g>
		<path class="st0" d="M385.7,125.7h-18.1V5.9h25.9l16.8,86.1l16.2-86.1h24.9v119.8h-18.1V50.4l-15.7,75.3h-14.5l-17.5-75.1V125.7z"
			/>
		<path class="st0" d="M489.7,98.1l-4.4,27.5h-18.8L486.8,6h24.8l20.1,119.7h-19l-4.2-27.5H489.7z M499.2,33.4l-6.7,47.2h13.4
			L499.2,33.4z"/>
		<path class="st0" d="M565,125.7h-18.1V5.9h25.9l16.8,86.1l16.2-86.1h24.9v119.8h-18.1V50.4L597,125.7h-14.5L565,50.6V125.7z"/>
		<path class="st0" d="M669,98.1l-4.4,27.5h-18.8L666.2,6H691l20.1,119.7h-19l-4.2-27.5H669z M678.5,33.4l-6.7,47.2h13.4L678.5,33.4
			z"/>
	</g>
	<g>
		<polygon class="st0" points="126.4,5.6 7,240.4 91.3,240.4 168.5,88.5 		"/>
		<polygon class="st0" points="210.7,5.6 168.5,88.5 245.8,240.4 330,240.4 		"/>
		<polygon class="st0" points="106.3,240.4 230.7,240.4 168.5,118 		"/>
	</g>
	<g>
		<path class="st0" d="M367.6,156.6h5.4l8.6,20.4h0.2l8.5-20.4h5.4v26.9H392v-22.1h-0.1l-9.1,22.1h-2.4l-9.1-22.1h-0.1v22.1h-3.7
			V156.6z"/>
		<path class="st0" d="M417.4,183.6H414v-2.8h-0.1c-0.4,1-1.2,1.7-2.2,2.3c-1.1,0.6-2.3,0.9-3.7,0.9c-0.9,0-1.7-0.1-2.5-0.4
			c-0.8-0.3-1.5-0.7-2.1-1.2c-0.6-0.6-1.1-1.3-1.4-2.1c-0.4-0.9-0.5-1.9-0.5-3.1v-11.6h3.4v10.6c0,0.8,0.1,1.6,0.3,2.1
			c0.2,0.6,0.5,1.1,0.9,1.4c0.4,0.4,0.8,0.6,1.3,0.8c0.5,0.2,1,0.2,1.5,0.2c0.7,0,1.4-0.1,2-0.3c0.6-0.2,1.1-0.6,1.6-1.1
			c0.5-0.5,0.8-1.1,1.1-1.9c0.3-0.8,0.4-1.7,0.4-2.7v-9.3h3.4V183.6z"/>
		<path class="st0" d="M422.8,154.8h3.4v28.7h-3.4V154.8z"/>
		<path class="st0" d="M441.4,168.5h-4.9v8.2c0,0.5,0,1,0,1.5c0,0.5,0.1,0.9,0.3,1.3c0.2,0.4,0.4,0.7,0.8,1c0.3,0.2,0.8,0.4,1.5,0.4
			c0.4,0,0.8,0,1.3-0.1c0.4-0.1,0.8-0.2,1.2-0.4v3.1c-0.4,0.2-0.9,0.4-1.6,0.5c-0.6,0.1-1.1,0.1-1.5,0.1c-1.3,0-2.3-0.2-3.1-0.6
			c-0.7-0.4-1.3-0.8-1.6-1.4c-0.3-0.6-0.5-1.2-0.6-2c-0.1-0.7-0.1-1.5-0.1-2.2v-9.4h-4v-3h4v-5.1h3.4v5.1h4.9V168.5z"/>
		<path class="st0" d="M445.2,159.1c0-0.7,0.2-1.3,0.7-1.8c0.5-0.5,1.1-0.7,1.8-0.7c0.7,0,1.3,0.2,1.8,0.7c0.5,0.5,0.7,1.1,0.7,1.8
			s-0.2,1.3-0.7,1.8c-0.5,0.5-1.1,0.7-1.8,0.7c-0.7,0-1.3-0.2-1.8-0.7C445.5,160.4,445.2,159.8,445.2,159.1z M446,165.5h3.4v18H446
			V165.5z"/>
		<path class="st0" d="M467.8,170.3c-0.6-0.7-1.3-1.2-2-1.5c-0.7-0.3-1.5-0.5-2.5-0.5c-0.9,0-1.8,0.2-2.5,0.5
			c-0.7,0.3-1.3,0.8-1.7,1.4c-0.5,0.6-0.8,1.3-1.1,2.1c-0.2,0.8-0.4,1.6-0.4,2.4c0,0.8,0.1,1.6,0.4,2.4c0.3,0.7,0.7,1.4,1.2,2
			c0.5,0.6,1.1,1,1.8,1.3c0.7,0.3,1.5,0.5,2.4,0.5c1,0,1.8-0.2,2.5-0.5c0.7-0.3,1.3-0.8,1.9-1.5l2.4,2.4c-0.9,1-1.9,1.7-3.1,2.1
			c-1.2,0.4-2.4,0.6-3.7,0.6c-1.4,0-2.7-0.2-3.8-0.7c-1.2-0.5-2.1-1.1-3-1.9c-0.8-0.8-1.5-1.8-1.9-3c-0.5-1.2-0.7-2.4-0.7-3.8
			c0-1.4,0.2-2.7,0.7-3.8c0.5-1.2,1.1-2.2,1.9-3c0.8-0.8,1.8-1.5,3-2c1.2-0.5,2.4-0.7,3.9-0.7c1.3,0,2.6,0.2,3.8,0.7
			c1.2,0.5,2.2,1.2,3.1,2.1L467.8,170.3z"/>
		<path class="st0" d="M473.2,154.8h3.4v13.5h0.1c0.4-1,1.2-1.7,2.2-2.3c1.1-0.6,2.3-0.9,3.7-0.9c0.9,0,1.7,0.1,2.5,0.4
			c0.8,0.3,1.5,0.7,2.1,1.2c0.6,0.6,1.1,1.3,1.4,2.1c0.4,0.9,0.5,1.9,0.5,3.1v11.6h-3.4v-10.6c0-0.8-0.1-1.6-0.3-2.1
			c-0.2-0.6-0.5-1.1-0.9-1.4c-0.4-0.4-0.8-0.6-1.3-0.8c-0.5-0.2-1-0.2-1.5-0.2c-0.7,0-1.4,0.1-2,0.3c-0.6,0.2-1.1,0.6-1.6,1.1
			c-0.5,0.5-0.8,1.1-1.1,1.9c-0.3,0.8-0.4,1.7-0.4,2.7v9.3h-3.4V154.8z"/>
		<path class="st0" d="M494.4,167.7c1-0.9,2.1-1.6,3.3-2c1.3-0.4,2.5-0.7,3.8-0.7c1.3,0,2.5,0.2,3.4,0.5c1,0.3,1.7,0.8,2.3,1.3
			c0.6,0.6,1.1,1.2,1.3,1.9c0.3,0.7,0.4,1.5,0.4,2.3v9.2c0,0.6,0,1.2,0,1.7c0,0.5,0.1,1,0.1,1.5h-3c-0.1-0.9-0.1-1.8-0.1-2.7H506
			c-0.8,1.2-1.7,2-2.7,2.5c-1,0.5-2.2,0.7-3.6,0.7c-0.8,0-1.6-0.1-2.4-0.3c-0.8-0.2-1.4-0.6-2-1c-0.6-0.5-1-1-1.3-1.7
			c-0.3-0.7-0.5-1.5-0.5-2.3c0-1.2,0.3-2.1,0.8-2.9c0.5-0.8,1.2-1.4,2.1-1.9c0.9-0.5,2-0.8,3.2-1.1s2.5-0.3,3.9-0.3h2.5v-0.8
			c0-0.5-0.1-0.9-0.3-1.4c-0.2-0.5-0.4-0.9-0.8-1.2c-0.4-0.4-0.8-0.7-1.3-0.9c-0.5-0.2-1.2-0.3-1.9-0.3c-0.7,0-1.2,0.1-1.7,0.2
			c-0.5,0.1-0.9,0.3-1.3,0.5c-0.4,0.2-0.8,0.4-1.1,0.7c-0.3,0.3-0.6,0.5-1,0.7L494.4,167.7z M504.1,174.9c-0.8,0-1.6,0-2.5,0.1
			c-0.8,0.1-1.6,0.3-2.3,0.5c-0.7,0.3-1.3,0.6-1.7,1.1c-0.4,0.5-0.7,1-0.7,1.7c0,1,0.3,1.8,1,2.2c0.7,0.5,1.6,0.7,2.8,0.7
			c0.9,0,1.7-0.2,2.4-0.5c0.7-0.3,1.2-0.7,1.6-1.2c0.4-0.5,0.7-1.1,0.9-1.7c0.2-0.6,0.3-1.2,0.3-1.8v-1.1H504.1z"/>
		<path class="st0" d="M513.6,159.1c0-0.7,0.2-1.3,0.7-1.8c0.5-0.5,1.1-0.7,1.8-0.7c0.7,0,1.3,0.2,1.8,0.7c0.5,0.5,0.7,1.1,0.7,1.8
			s-0.2,1.3-0.7,1.8c-0.5,0.5-1.1,0.7-1.8,0.7c-0.7,0-1.3-0.2-1.8-0.7C513.8,160.4,513.6,159.8,513.6,159.1z M514.4,165.5h3.4v18
			h-3.4V165.5z"/>
		<path class="st0" d="M523.2,165.5h3.4v2.8h0.1c0.4-1,1.2-1.7,2.2-2.3c1.1-0.6,2.3-0.9,3.7-0.9c0.9,0,1.7,0.1,2.5,0.4
			c0.8,0.3,1.5,0.7,2.1,1.2c0.6,0.6,1.1,1.3,1.4,2.1c0.4,0.9,0.5,1.9,0.5,3.1v11.6h-3.4v-10.6c0-0.8-0.1-1.6-0.3-2.1
			c-0.2-0.6-0.5-1.1-0.9-1.4c-0.4-0.4-0.8-0.6-1.3-0.8c-0.5-0.2-1-0.2-1.5-0.2c-0.7,0-1.4,0.1-2,0.3c-0.6,0.2-1.1,0.6-1.6,1.1
			c-0.5,0.5-0.8,1.1-1.1,1.9s-0.4,1.7-0.4,2.7v9.3h-3.4V165.5z"/>
		<path class="st0" d="M564.3,156.6h3.3l11.5,26.9h-4.3l-2.7-6.7h-12.8l-2.7,6.7h-4.3L564.3,156.6z M570.8,173.7l-5-12.4h-0.1
			l-5.1,12.4H570.8z"/>
		<path class="st0" d="M591.3,170.1c-0.4-0.5-0.9-0.9-1.5-1.3c-0.6-0.3-1.3-0.5-2.2-0.5c-0.8,0-1.5,0.2-2.1,0.5
			c-0.6,0.3-0.9,0.8-0.9,1.5c0,0.5,0.2,1,0.5,1.3c0.3,0.3,0.7,0.6,1.2,0.8c0.5,0.2,1,0.4,1.5,0.5c0.5,0.1,1,0.2,1.4,0.3
			c0.7,0.2,1.4,0.4,2.1,0.6c0.6,0.3,1.2,0.6,1.7,1c0.5,0.4,0.8,0.9,1.1,1.5c0.3,0.6,0.4,1.3,0.4,2.1c0,1-0.2,1.9-0.6,2.6
			c-0.4,0.7-1,1.3-1.7,1.8c-0.7,0.5-1.5,0.8-2.3,1c-0.9,0.2-1.8,0.3-2.6,0.3c-1.5,0-2.8-0.2-3.9-0.7c-1.1-0.5-2.1-1.3-3-2.5l2.6-2.1
			c0.6,0.6,1.2,1.1,1.9,1.5c0.7,0.4,1.5,0.6,2.5,0.6c0.4,0,0.9,0,1.3-0.1c0.4-0.1,0.8-0.2,1.2-0.4c0.3-0.2,0.6-0.4,0.8-0.7
			c0.2-0.3,0.3-0.6,0.3-1c0-0.5-0.2-0.9-0.5-1.3c-0.3-0.3-0.7-0.6-1.1-0.8c-0.4-0.2-0.9-0.3-1.4-0.5c-0.5-0.1-0.9-0.2-1.3-0.3
			c-0.7-0.2-1.4-0.4-2.1-0.6c-0.7-0.2-1.2-0.5-1.7-0.9c-0.5-0.4-0.9-0.9-1.2-1.4c-0.3-0.6-0.5-1.3-0.5-2.2c0-0.9,0.2-1.8,0.6-2.5
			c0.4-0.7,0.9-1.3,1.6-1.7c0.6-0.5,1.4-0.8,2.2-1c0.8-0.2,1.7-0.3,2.5-0.3c1.2,0,2.4,0.2,3.5,0.7c1.1,0.5,2,1.2,2.7,2.3
			L591.3,170.1z"/>
		<path class="st0" d="M608.2,170.1c-0.4-0.5-0.9-0.9-1.5-1.3c-0.6-0.3-1.3-0.5-2.2-0.5c-0.8,0-1.5,0.2-2.1,0.5
			c-0.6,0.3-0.9,0.8-0.9,1.5c0,0.5,0.2,1,0.5,1.3c0.3,0.3,0.7,0.6,1.2,0.8c0.5,0.2,1,0.4,1.5,0.5c0.5,0.1,1,0.2,1.4,0.3
			c0.7,0.2,1.4,0.4,2.1,0.6c0.6,0.3,1.2,0.6,1.7,1c0.5,0.4,0.8,0.9,1.1,1.5c0.3,0.6,0.4,1.3,0.4,2.1c0,1-0.2,1.9-0.6,2.6
			c-0.4,0.7-1,1.3-1.7,1.8c-0.7,0.5-1.5,0.8-2.3,1c-0.9,0.2-1.8,0.3-2.6,0.3c-1.5,0-2.8-0.2-3.9-0.7c-1.1-0.5-2.1-1.3-3-2.5l2.6-2.1
			c0.6,0.6,1.2,1.1,1.9,1.5c0.7,0.4,1.5,0.6,2.5,0.6c0.4,0,0.9,0,1.3-0.1c0.4-0.1,0.8-0.2,1.2-0.4c0.3-0.2,0.6-0.4,0.8-0.7
			c0.2-0.3,0.3-0.6,0.3-1c0-0.5-0.2-0.9-0.5-1.3c-0.3-0.3-0.7-0.6-1.1-0.8c-0.4-0.2-0.9-0.3-1.4-0.5c-0.5-0.1-0.9-0.2-1.3-0.3
			c-0.7-0.2-1.4-0.4-2.1-0.6c-0.7-0.2-1.2-0.5-1.7-0.9c-0.5-0.4-0.9-0.9-1.2-1.4c-0.3-0.6-0.5-1.3-0.5-2.2c0-0.9,0.2-1.8,0.6-2.5
			c0.4-0.7,0.9-1.3,1.6-1.7c0.6-0.5,1.4-0.8,2.2-1c0.8-0.2,1.7-0.3,2.5-0.3c1.2,0,2.4,0.2,3.5,0.7c1.1,0.5,2,1.2,2.7,2.3
			L608.2,170.1z"/>
		<path class="st0" d="M618.1,175.8c0,0.8,0.2,1.5,0.5,2.1c0.3,0.6,0.8,1.2,1.3,1.7c0.6,0.5,1.2,0.8,1.9,1.1s1.5,0.4,2.3,0.4
			c1.1,0,2-0.2,2.8-0.7c0.8-0.5,1.5-1.1,2.2-2l2.6,2c-1.9,2.5-4.6,3.7-8,3.7c-1.4,0-2.7-0.2-3.9-0.7c-1.2-0.5-2.1-1.1-2.9-2
			c-0.8-0.8-1.4-1.9-1.8-3c-0.4-1.2-0.6-2.4-0.6-3.7c0-1.3,0.2-2.6,0.7-3.7c0.5-1.2,1.1-2.2,1.9-3c0.8-0.8,1.8-1.5,2.9-2
			c1.1-0.5,2.4-0.7,3.7-0.7c1.6,0,2.9,0.3,4.1,0.8c1.1,0.6,2,1.3,2.7,2.2c0.7,0.9,1.2,1.9,1.5,3c0.3,1.1,0.5,2.3,0.5,3.4v1.2H618.1z
			 M628.9,173.1c0-0.8-0.1-1.5-0.4-2.1c-0.2-0.6-0.5-1.2-1-1.7c-0.4-0.5-1-0.8-1.6-1.1c-0.6-0.3-1.4-0.4-2.3-0.4
			c-0.8,0-1.6,0.2-2.3,0.5c-0.7,0.3-1.3,0.7-1.8,1.2c-0.5,0.5-0.9,1.1-1.1,1.7c-0.3,0.6-0.4,1.2-0.4,1.8H628.9z"/>
		<path class="st0" d="M646.3,168.5h-4.9v8.2c0,0.5,0,1,0,1.5c0,0.5,0.1,0.9,0.3,1.3c0.2,0.4,0.4,0.7,0.8,1c0.3,0.2,0.8,0.4,1.5,0.4
			c0.4,0,0.8,0,1.3-0.1c0.4-0.1,0.8-0.2,1.2-0.4v3.1c-0.4,0.2-0.9,0.4-1.6,0.5c-0.6,0.1-1.1,0.1-1.5,0.1c-1.3,0-2.3-0.2-3.1-0.6
			c-0.7-0.4-1.3-0.8-1.6-1.4c-0.3-0.6-0.5-1.2-0.6-2c-0.1-0.7-0.1-1.5-0.1-2.2v-9.4h-4v-3h4v-5.1h3.4v5.1h4.9V168.5z"/>
		<path class="st0" d="M367.6,202.3h5.4l8.6,20.4h0.2l8.5-20.4h5.4v26.9H392v-22.1h-0.1l-9.1,22.1h-2.4l-9.1-22.1h-0.1v22.1h-3.7
			V202.3z"/>
		<path class="st0" d="M401.5,213.4c1-0.9,2.1-1.6,3.3-2c1.3-0.4,2.5-0.7,3.8-0.7c1.3,0,2.5,0.2,3.4,0.5c1,0.3,1.7,0.8,2.3,1.3
			c0.6,0.6,1.1,1.2,1.3,1.9c0.3,0.7,0.4,1.5,0.4,2.3v9.2c0,0.6,0,1.2,0,1.7c0,0.5,0.1,1,0.1,1.5h-3c-0.1-0.9-0.1-1.8-0.1-2.7h-0.1
			c-0.8,1.2-1.7,2-2.7,2.5c-1,0.5-2.2,0.7-3.6,0.7c-0.8,0-1.6-0.1-2.4-0.3c-0.8-0.2-1.4-0.6-2-1c-0.6-0.5-1-1-1.3-1.7
			c-0.3-0.7-0.5-1.5-0.5-2.3c0-1.2,0.3-2.1,0.8-2.9c0.5-0.8,1.2-1.4,2.1-1.9s2-0.8,3.2-1.1s2.5-0.3,3.9-0.3h2.5v-0.8
			c0-0.5-0.1-0.9-0.3-1.4c-0.2-0.5-0.4-0.9-0.8-1.2c-0.4-0.4-0.8-0.7-1.3-0.9c-0.5-0.2-1.2-0.3-1.9-0.3c-0.7,0-1.2,0.1-1.7,0.2
			c-0.5,0.1-0.9,0.3-1.3,0.5c-0.4,0.2-0.8,0.4-1.1,0.7c-0.3,0.3-0.6,0.5-1,0.7L401.5,213.4z M411.2,220.5c-0.8,0-1.6,0-2.5,0.1
			c-0.8,0.1-1.6,0.3-2.3,0.5c-0.7,0.3-1.3,0.6-1.7,1.1c-0.4,0.5-0.7,1-0.7,1.7c0,1,0.3,1.8,1,2.2c0.7,0.5,1.6,0.7,2.8,0.7
			c0.9,0,1.7-0.2,2.4-0.5c0.7-0.3,1.2-0.7,1.6-1.2c0.4-0.5,0.7-1.1,0.9-1.7c0.2-0.6,0.3-1.2,0.3-1.8v-1.1H411.2z"/>
		<path class="st0" d="M421.2,211.2h3.4v2.8h0.1c0.4-1,1.2-1.7,2.2-2.3c1.1-0.6,2.3-0.9,3.7-0.9c0.9,0,1.7,0.1,2.5,0.4
			c0.8,0.3,1.5,0.7,2.1,1.2c0.6,0.6,1.1,1.3,1.4,2.1s0.5,1.9,0.5,3.1v11.6h-3.4v-10.6c0-0.8-0.1-1.6-0.3-2.1
			c-0.2-0.6-0.5-1.1-0.9-1.4c-0.4-0.4-0.8-0.6-1.3-0.8c-0.5-0.2-1-0.2-1.5-0.2c-0.7,0-1.4,0.1-2,0.3c-0.6,0.2-1.1,0.6-1.6,1.1
			c-0.5,0.5-0.8,1.1-1.1,1.9c-0.3,0.8-0.4,1.7-0.4,2.7v9.3h-3.4V211.2z"/>
		<path class="st0" d="M442.4,213.4c1-0.9,2.1-1.6,3.3-2c1.3-0.4,2.5-0.7,3.8-0.7c1.3,0,2.5,0.2,3.4,0.5c1,0.3,1.7,0.8,2.3,1.3
			c0.6,0.6,1.1,1.2,1.3,1.9c0.3,0.7,0.4,1.5,0.4,2.3v9.2c0,0.6,0,1.2,0,1.7c0,0.5,0.1,1,0.1,1.5h-3c-0.1-0.9-0.1-1.8-0.1-2.7H454
			c-0.8,1.2-1.7,2-2.7,2.5c-1,0.5-2.2,0.7-3.6,0.7c-0.8,0-1.6-0.1-2.4-0.3c-0.8-0.2-1.4-0.6-2-1c-0.6-0.5-1-1-1.3-1.7
			c-0.3-0.7-0.5-1.5-0.5-2.3c0-1.2,0.3-2.1,0.8-2.9c0.5-0.8,1.2-1.4,2.1-1.9c0.9-0.5,2-0.8,3.2-1.1s2.5-0.3,3.9-0.3h2.5v-0.8
			c0-0.5-0.1-0.9-0.3-1.4c-0.2-0.5-0.4-0.9-0.8-1.2c-0.4-0.4-0.8-0.7-1.3-0.9c-0.5-0.2-1.2-0.3-1.9-0.3c-0.7,0-1.2,0.1-1.7,0.2
			c-0.5,0.1-0.9,0.3-1.3,0.5c-0.4,0.2-0.8,0.4-1.1,0.7c-0.3,0.3-0.6,0.5-1,0.7L442.4,213.4z M452,220.5c-0.8,0-1.6,0-2.5,0.1
			c-0.8,0.1-1.6,0.3-2.3,0.5c-0.7,0.3-1.3,0.6-1.7,1.1c-0.4,0.5-0.7,1-0.7,1.7c0,1,0.3,1.8,1,2.2c0.7,0.5,1.6,0.7,2.8,0.7
			c0.9,0,1.7-0.2,2.4-0.5c0.7-0.3,1.2-0.7,1.6-1.2c0.4-0.5,0.7-1.1,0.9-1.7c0.2-0.6,0.3-1.2,0.3-1.8v-1.1H452z"/>
		<path class="st0" d="M480.1,229c0,1.4-0.2,2.6-0.7,3.7c-0.5,1.1-1.1,2.1-2,2.9c-0.9,0.8-1.9,1.5-3.1,1.9c-1.2,0.5-2.6,0.7-4,0.7
			c-1.7,0-3.3-0.2-4.7-0.7c-1.4-0.5-2.8-1.3-4.1-2.5l2.3-2.9c0.9,1,1.8,1.7,2.9,2.2c1,0.5,2.2,0.7,3.5,0.7c1.3,0,2.3-0.2,3.2-0.6
			c0.8-0.4,1.5-0.8,2-1.4c0.5-0.6,0.8-1.2,1-2c0.2-0.7,0.3-1.5,0.3-2.3v-2.7h-0.1c-0.7,1.1-1.6,1.9-2.7,2.4
			c-1.1,0.5-2.3,0.8-3.6,0.8c-1.3,0-2.5-0.2-3.7-0.7c-1.1-0.5-2.1-1.1-2.9-1.9c-0.8-0.8-1.4-1.8-1.9-2.9c-0.5-1.1-0.7-2.4-0.7-3.7
			s0.2-2.6,0.6-3.7c0.4-1.2,1-2.2,1.8-3c0.8-0.9,1.8-1.5,2.9-2c1.1-0.5,2.4-0.7,3.8-0.7c1.2,0,2.4,0.3,3.6,0.8
			c1.2,0.5,2.1,1.3,2.7,2.2h0.1v-2.6h3.4V229z M470.8,213.9c-0.9,0-1.7,0.2-2.5,0.5c-0.7,0.3-1.4,0.7-1.9,1.3
			c-0.5,0.5-0.9,1.2-1.2,2c-0.3,0.8-0.4,1.6-0.4,2.5c0,1.8,0.5,3.3,1.6,4.4c1.1,1.1,2.5,1.7,4.3,1.7c1.8,0,3.3-0.6,4.3-1.7
			c1.1-1.1,1.6-2.6,1.6-4.4c0-0.9-0.1-1.8-0.4-2.5c-0.3-0.8-0.7-1.4-1.2-2c-0.5-0.5-1.1-1-1.9-1.3
			C472.5,214.1,471.7,213.9,470.8,213.9z"/>
		<path class="st0" d="M487.9,221.4c0,0.8,0.2,1.5,0.5,2.1c0.3,0.6,0.8,1.2,1.3,1.7c0.6,0.5,1.2,0.8,1.9,1.1
			c0.7,0.3,1.5,0.4,2.3,0.4c1.1,0,2-0.2,2.8-0.7c0.8-0.5,1.5-1.1,2.2-2l2.6,2c-1.9,2.5-4.6,3.7-8,3.7c-1.4,0-2.7-0.2-3.9-0.7
			s-2.1-1.1-2.9-2c-0.8-0.8-1.4-1.9-1.8-3c-0.4-1.2-0.6-2.4-0.6-3.7s0.2-2.6,0.7-3.7c0.5-1.2,1.1-2.2,1.9-3c0.8-0.8,1.8-1.5,2.9-2
			c1.1-0.5,2.4-0.7,3.7-0.7c1.6,0,2.9,0.3,4.1,0.8c1.1,0.6,2,1.3,2.7,2.2c0.7,0.9,1.2,1.9,1.5,3c0.3,1.1,0.5,2.3,0.5,3.4v1.2H487.9z
			 M498.7,218.7c0-0.8-0.1-1.5-0.4-2.1c-0.2-0.6-0.5-1.2-1-1.7c-0.4-0.5-1-0.8-1.6-1.1c-0.6-0.3-1.4-0.4-2.3-0.4
			c-0.8,0-1.6,0.2-2.3,0.5c-0.7,0.3-1.3,0.7-1.8,1.2c-0.5,0.5-0.9,1.1-1.1,1.7c-0.3,0.6-0.4,1.2-0.4,1.8H498.7z"/>
		<path class="st0" d="M506.4,211.2h3.4v2.8h0.1c0.2-0.5,0.5-0.9,0.9-1.3c0.4-0.4,0.8-0.7,1.3-1c0.5-0.3,1-0.5,1.5-0.7
			c0.6-0.2,1.1-0.2,1.7-0.2c0.6,0,1.1,0.1,1.5,0.2l-0.2,3.7c-0.3-0.1-0.6-0.1-0.8-0.2c-0.3-0.1-0.6-0.1-0.8-0.1
			c-1.7,0-3,0.5-3.8,1.4c-0.9,0.9-1.3,2.4-1.3,4.4v9h-3.4V211.2z"/>
		<path class="st0" d="M530.1,215.7c-0.4-0.5-0.9-0.9-1.5-1.3c-0.6-0.3-1.3-0.5-2.2-0.5c-0.8,0-1.5,0.2-2.1,0.5
			c-0.6,0.3-0.9,0.8-0.9,1.5c0,0.5,0.2,1,0.5,1.3c0.3,0.3,0.7,0.6,1.2,0.8c0.5,0.2,1,0.4,1.5,0.5c0.5,0.1,1,0.2,1.4,0.3
			c0.7,0.2,1.4,0.4,2.1,0.6c0.6,0.3,1.2,0.6,1.7,1c0.5,0.4,0.8,0.9,1.1,1.5c0.3,0.6,0.4,1.3,0.4,2.1c0,1-0.2,1.9-0.6,2.6
			c-0.4,0.7-1,1.3-1.7,1.8c-0.7,0.5-1.5,0.8-2.3,1c-0.9,0.2-1.8,0.3-2.6,0.3c-1.5,0-2.8-0.2-3.9-0.7c-1.1-0.5-2.1-1.3-3-2.5l2.6-2.1
			c0.6,0.6,1.2,1.1,1.9,1.5c0.7,0.4,1.5,0.6,2.5,0.6c0.4,0,0.9,0,1.3-0.1c0.4-0.1,0.8-0.2,1.2-0.4c0.3-0.2,0.6-0.4,0.8-0.7
			c0.2-0.3,0.3-0.6,0.3-1c0-0.5-0.2-0.9-0.5-1.3c-0.3-0.3-0.7-0.6-1.1-0.8c-0.4-0.2-0.9-0.3-1.4-0.5c-0.5-0.1-0.9-0.2-1.3-0.3
			c-0.7-0.2-1.4-0.4-2.1-0.6c-0.7-0.2-1.2-0.5-1.7-0.9c-0.5-0.4-0.9-0.9-1.2-1.4c-0.3-0.6-0.5-1.3-0.5-2.2c0-0.9,0.2-1.8,0.6-2.5
			c0.4-0.7,0.9-1.3,1.6-1.7c0.6-0.5,1.4-0.8,2.2-1c0.8-0.2,1.7-0.3,2.5-0.3c1.2,0,2.4,0.2,3.5,0.7c1.1,0.5,2,1.2,2.7,2.3
			L530.1,215.7z"/>
		<path class="st0" d="M557.3,202.3h3.3l11.5,26.9h-4.3l-2.7-6.7h-12.8l-2.7,6.7h-4.3L557.3,202.3z M563.8,219.3l-5-12.4h-0.1
			l-5.1,12.4H563.8z"/>
		<path class="st0" d="M584.3,215.7c-0.4-0.5-0.9-0.9-1.5-1.3c-0.6-0.3-1.3-0.5-2.2-0.5c-0.8,0-1.5,0.2-2.1,0.5
			c-0.6,0.3-0.9,0.8-0.9,1.5c0,0.5,0.2,1,0.5,1.3c0.3,0.3,0.7,0.6,1.2,0.8c0.5,0.2,1,0.4,1.5,0.5c0.5,0.1,1,0.2,1.4,0.3
			c0.7,0.2,1.4,0.4,2.1,0.6c0.6,0.3,1.2,0.6,1.7,1c0.5,0.4,0.8,0.9,1.1,1.5c0.3,0.6,0.4,1.3,0.4,2.1c0,1-0.2,1.9-0.6,2.6
			c-0.4,0.7-1,1.3-1.7,1.8c-0.7,0.5-1.5,0.8-2.3,1c-0.9,0.2-1.8,0.3-2.6,0.3c-1.5,0-2.8-0.2-3.9-0.7c-1.1-0.5-2.1-1.3-3-2.5l2.6-2.1
			c0.6,0.6,1.2,1.1,1.9,1.5c0.7,0.4,1.5,0.6,2.5,0.6c0.4,0,0.9,0,1.3-0.1c0.4-0.1,0.8-0.2,1.2-0.4c0.3-0.2,0.6-0.4,0.8-0.7
			c0.2-0.3,0.3-0.6,0.3-1c0-0.5-0.2-0.9-0.5-1.3c-0.3-0.3-0.7-0.6-1.1-0.8c-0.4-0.2-0.9-0.3-1.4-0.5c-0.5-0.1-0.9-0.2-1.3-0.3
			c-0.7-0.2-1.4-0.4-2.1-0.6c-0.7-0.2-1.2-0.5-1.7-0.9c-0.5-0.4-0.9-0.9-1.2-1.4c-0.3-0.6-0.5-1.3-0.5-2.2c0-0.9,0.2-1.8,0.6-2.5
			c0.4-0.7,0.9-1.3,1.6-1.7c0.6-0.5,1.4-0.8,2.2-1c0.8-0.2,1.7-0.3,2.5-0.3c1.2,0,2.4,0.2,3.5,0.7c1.1,0.5,2,1.2,2.7,2.3
			L584.3,215.7z"/>
		<path class="st0" d="M601.2,215.7c-0.4-0.5-0.9-0.9-1.5-1.3c-0.6-0.3-1.3-0.5-2.2-0.5c-0.8,0-1.5,0.2-2.1,0.5
			c-0.6,0.3-0.9,0.8-0.9,1.5c0,0.5,0.2,1,0.5,1.3c0.3,0.3,0.7,0.6,1.2,0.8c0.5,0.2,1,0.4,1.5,0.5c0.5,0.1,1,0.2,1.4,0.3
			c0.7,0.2,1.4,0.4,2.1,0.6c0.6,0.3,1.2,0.6,1.7,1c0.5,0.4,0.8,0.9,1.1,1.5c0.3,0.6,0.4,1.3,0.4,2.1c0,1-0.2,1.9-0.6,2.6
			c-0.4,0.7-1,1.3-1.7,1.8c-0.7,0.5-1.5,0.8-2.3,1c-0.9,0.2-1.8,0.3-2.6,0.3c-1.5,0-2.8-0.2-3.9-0.7c-1.1-0.5-2.1-1.3-3-2.5l2.6-2.1
			c0.6,0.6,1.2,1.1,1.9,1.5c0.7,0.4,1.5,0.6,2.5,0.6c0.4,0,0.9,0,1.3-0.1c0.4-0.1,0.8-0.2,1.2-0.4s0.6-0.4,0.8-0.7
			c0.2-0.3,0.3-0.6,0.3-1c0-0.5-0.2-0.9-0.5-1.3c-0.3-0.3-0.7-0.6-1.1-0.8c-0.4-0.2-0.9-0.3-1.4-0.5c-0.5-0.1-0.9-0.2-1.3-0.3
			c-0.7-0.2-1.4-0.4-2.1-0.6c-0.7-0.2-1.2-0.5-1.7-0.9c-0.5-0.4-0.9-0.9-1.2-1.4c-0.3-0.6-0.5-1.3-0.5-2.2c0-0.9,0.2-1.8,0.6-2.5
			c0.4-0.7,0.9-1.3,1.6-1.7c0.6-0.5,1.4-0.8,2.2-1c0.8-0.2,1.7-0.3,2.5-0.3c1.2,0,2.4,0.2,3.5,0.7c1.1,0.5,2,1.2,2.7,2.3
			L601.2,215.7z"/>
		<path class="st0" d="M607.6,220.2c0-1.3,0.2-2.5,0.7-3.7c0.5-1.1,1.2-2.1,2-3c0.9-0.9,1.9-1.5,3-2s2.4-0.7,3.8-0.7
			s2.6,0.2,3.8,0.7c1.2,0.5,2.2,1.2,3,2c0.9,0.9,1.5,1.9,2,3c0.5,1.1,0.7,2.4,0.7,3.7s-0.2,2.6-0.7,3.7c-0.5,1.2-1.2,2.2-2,3
			c-0.9,0.8-1.9,1.5-3,2c-1.2,0.5-2.4,0.7-3.8,0.7s-2.6-0.2-3.8-0.7s-2.2-1.2-3-2c-0.9-0.8-1.5-1.9-2-3
			C607.8,222.7,607.6,221.5,607.6,220.2z M611.3,220.2c0,0.9,0.1,1.8,0.4,2.5c0.3,0.8,0.7,1.4,1.2,2c0.5,0.5,1.1,1,1.9,1.3
			c0.7,0.3,1.6,0.5,2.5,0.5c0.9,0,1.7-0.2,2.5-0.5c0.7-0.3,1.4-0.7,1.9-1.3c0.5-0.5,0.9-1.2,1.2-2c0.3-0.8,0.4-1.6,0.4-2.5
			c0-0.9-0.1-1.8-0.4-2.5c-0.3-0.8-0.7-1.4-1.2-2c-0.5-0.5-1.1-1-1.9-1.3c-0.7-0.3-1.6-0.5-2.5-0.5c-0.9,0-1.7,0.2-2.5,0.5
			c-0.7,0.3-1.4,0.7-1.9,1.3c-0.5,0.5-0.9,1.2-1.2,2C611.4,218.4,611.3,219.3,611.3,220.2z"/>
		<path class="st0" d="M644,216c-0.6-0.7-1.3-1.2-2-1.5c-0.7-0.3-1.5-0.5-2.5-0.5c-0.9,0-1.8,0.2-2.5,0.5c-0.7,0.3-1.3,0.8-1.7,1.4
			c-0.5,0.6-0.8,1.3-1.1,2.1c-0.2,0.8-0.4,1.6-0.4,2.4c0,0.8,0.1,1.6,0.4,2.4c0.3,0.7,0.7,1.4,1.2,2c0.5,0.6,1.1,1,1.8,1.3
			c0.7,0.3,1.5,0.5,2.4,0.5c1,0,1.8-0.2,2.5-0.5c0.7-0.3,1.3-0.8,1.9-1.5l2.4,2.4c-0.9,1-1.9,1.7-3.1,2.1c-1.2,0.4-2.4,0.6-3.7,0.6
			c-1.4,0-2.7-0.2-3.8-0.7c-1.2-0.5-2.1-1.1-3-1.9c-0.8-0.8-1.5-1.8-1.9-3c-0.5-1.2-0.7-2.4-0.7-3.8c0-1.4,0.2-2.7,0.7-3.8
			c0.5-1.2,1.1-2.2,1.9-3c0.8-0.8,1.8-1.5,3-2c1.2-0.5,2.4-0.7,3.9-0.7c1.3,0,2.6,0.2,3.8,0.7c1.2,0.5,2.2,1.2,3.1,2.1L644,216z"/>
		<path class="st0" d="M648.9,204.7c0-0.7,0.2-1.3,0.7-1.8c0.5-0.5,1.1-0.7,1.8-0.7c0.7,0,1.3,0.2,1.8,0.7c0.5,0.5,0.7,1.1,0.7,1.8
			s-0.2,1.3-0.7,1.8c-0.5,0.5-1.1,0.7-1.8,0.7c-0.7,0-1.3-0.2-1.8-0.7C649.1,206,648.9,205.4,648.9,204.7z M649.7,211.2h3.4v18h-3.4
			V211.2z"/>
		<path class="st0" d="M658.6,213.4c1-0.9,2.1-1.6,3.3-2c1.3-0.4,2.5-0.7,3.8-0.7c1.3,0,2.5,0.2,3.4,0.5c1,0.3,1.7,0.8,2.3,1.3
			c0.6,0.6,1.1,1.2,1.3,1.9c0.3,0.7,0.4,1.5,0.4,2.3v9.2c0,0.6,0,1.2,0,1.7c0,0.5,0.1,1,0.1,1.5h-3c-0.1-0.9-0.1-1.8-0.1-2.7h-0.1
			c-0.8,1.2-1.7,2-2.7,2.5c-1,0.5-2.2,0.7-3.6,0.7c-0.8,0-1.6-0.1-2.4-0.3c-0.8-0.2-1.4-0.6-2-1c-0.6-0.5-1-1-1.3-1.7
			c-0.3-0.7-0.5-1.5-0.5-2.3c0-1.2,0.3-2.1,0.8-2.9c0.5-0.8,1.2-1.4,2.1-1.9s2-0.8,3.2-1.1c1.2-0.2,2.5-0.3,3.9-0.3h2.5v-0.8
			c0-0.5-0.1-0.9-0.3-1.4c-0.2-0.5-0.4-0.9-0.8-1.2c-0.4-0.4-0.8-0.7-1.3-0.9c-0.5-0.2-1.2-0.3-1.9-0.3c-0.7,0-1.2,0.1-1.7,0.2
			c-0.5,0.1-0.9,0.3-1.3,0.5c-0.4,0.2-0.8,0.4-1.1,0.7c-0.3,0.3-0.6,0.5-1,0.7L658.6,213.4z M668.2,220.5c-0.8,0-1.6,0-2.5,0.1
			c-0.8,0.1-1.6,0.3-2.3,0.5c-0.7,0.3-1.3,0.6-1.7,1.1c-0.4,0.5-0.7,1-0.7,1.7c0,1,0.3,1.8,1,2.2c0.7,0.5,1.6,0.7,2.8,0.7
			c0.9,0,1.7-0.2,2.4-0.5c0.7-0.3,1.2-0.7,1.6-1.2c0.4-0.5,0.7-1.1,0.9-1.7c0.2-0.6,0.3-1.2,0.3-1.8v-1.1H668.2z"/>
		<path class="st0" d="M687.9,214.1H683v8.2c0,0.5,0,1,0,1.5s0.1,0.9,0.3,1.3c0.2,0.4,0.4,0.7,0.8,1c0.3,0.2,0.8,0.4,1.5,0.4
			c0.4,0,0.8,0,1.3-0.1c0.4-0.1,0.8-0.2,1.2-0.4v3.1c-0.4,0.2-0.9,0.4-1.6,0.5c-0.6,0.1-1.1,0.1-1.5,0.1c-1.3,0-2.3-0.2-3.1-0.6
			c-0.7-0.4-1.3-0.8-1.6-1.4c-0.3-0.6-0.5-1.2-0.6-2c-0.1-0.7-0.1-1.5-0.1-2.2v-9.4h-4v-3h4v-5.1h3.4v5.1h4.9V214.1z"/>
		<path class="st0" d="M691.8,204.7c0-0.7,0.2-1.3,0.7-1.8c0.5-0.5,1.1-0.7,1.8-0.7c0.7,0,1.3,0.2,1.8,0.7c0.5,0.5,0.7,1.1,0.7,1.8
			s-0.2,1.3-0.7,1.8c-0.5,0.5-1.1,0.7-1.8,0.7c-0.7,0-1.3-0.2-1.8-0.7C692,206,691.8,205.4,691.8,204.7z M692.6,211.2h3.4v18h-3.4
			V211.2z"/>
		<path class="st0" d="M700.6,220.2c0-1.3,0.2-2.5,0.7-3.7c0.5-1.1,1.2-2.1,2-3c0.9-0.9,1.9-1.5,3-2s2.4-0.7,3.8-0.7
			s2.6,0.2,3.8,0.7c1.2,0.5,2.2,1.2,3,2c0.9,0.9,1.5,1.9,2,3c0.5,1.1,0.7,2.4,0.7,3.7s-0.2,2.6-0.7,3.7c-0.5,1.2-1.2,2.2-2,3
			c-0.9,0.8-1.9,1.5-3,2c-1.2,0.5-2.4,0.7-3.8,0.7s-2.6-0.2-3.8-0.7s-2.2-1.2-3-2c-0.9-0.8-1.5-1.9-2-3
			C700.8,222.7,700.6,221.5,700.6,220.2z M704.2,220.2c0,0.9,0.1,1.8,0.4,2.5c0.3,0.8,0.7,1.4,1.2,2c0.5,0.5,1.1,1,1.9,1.3
			c0.7,0.3,1.6,0.5,2.5,0.5c0.9,0,1.7-0.2,2.5-0.5c0.7-0.3,1.4-0.7,1.9-1.3c0.5-0.5,0.9-1.2,1.2-2c0.3-0.8,0.4-1.6,0.4-2.5
			c0-0.9-0.1-1.8-0.4-2.5c-0.3-0.8-0.7-1.4-1.2-2c-0.5-0.5-1.1-1-1.9-1.3c-0.7-0.3-1.6-0.5-2.5-0.5c-0.9,0-1.7,0.2-2.5,0.5
			c-0.7,0.3-1.4,0.7-1.9,1.3c-0.5,0.5-0.9,1.2-1.2,2C704.4,218.4,704.2,219.3,704.2,220.2z"/>
		<path class="st0" d="M724,211.2h3.4v2.8h0.1c0.4-1,1.2-1.7,2.2-2.3c1.1-0.6,2.3-0.9,3.7-0.9c0.9,0,1.7,0.1,2.5,0.4
			c0.8,0.3,1.5,0.7,2.1,1.2c0.6,0.6,1.1,1.3,1.4,2.1s0.5,1.9,0.5,3.1v11.6h-3.4v-10.6c0-0.8-0.1-1.6-0.3-2.1
			c-0.2-0.6-0.5-1.1-0.9-1.4c-0.4-0.4-0.8-0.6-1.3-0.8c-0.5-0.2-1-0.2-1.5-0.2c-0.7,0-1.4,0.1-2,0.3c-0.6,0.2-1.1,0.6-1.6,1.1
			c-0.5,0.5-0.8,1.1-1.1,1.9c-0.3,0.8-0.4,1.7-0.4,2.7v9.3H724V211.2z"/>
	</g>
</g>
</svg>
