<svg height="512pt" viewBox="0 0 512 512" width="512pt" xmlns="http://www.w3.org/2000/svg"><path d="m416 326c5.519531 0 10-4.480469 10-10s-4.480469-10-10-10-10 4.480469-10 10 4.480469 10 10 10zm0 0"/><path d="m502 492h-16v-276c0-5.523438-4.476562-10-10-10h-60c-5.523438 0-10 4.476562-10 10v60c0 5.523438 4.476562 10 10 10s10-4.476562 10-10v-50h40v266h-40v-136c0-5.523438-4.476562-10-10-10s-10 4.476562-10 10v136h-40v-196c0-5.523438-4.476562-10-10-10h-60c-5.523438 0-10 4.476562-10 10v196h-40v-136c0-5.523438-4.476562-10-10-10h-60c-5.523438 0-10 4.476562-10 10v136h-40v-96c0-5.523438-4.476562-10-10-10h-60c-5.523438 0-10 4.476562-10 10v96h-26v-482c0-5.523438-4.476562-10-10-10s-10 4.476562-10 10v492c0 5.523438 4.476562 10 10 10h492c5.523438 0 10-4.476562 10-10s-4.476562-10-10-10zm-396 0h-40v-86h40zm120 0h-40v-126h40zm120 0h-40v-186h40zm0 0"/><path d="m93.925781 315.785156c-5.402343 1.148438-8.851562 6.453125-7.707031 11.859375 1.140625 5.390625 6.441406 8.855469 11.855469 7.707031 129.671875-27.480468 238.992187-105.714843 307.96875-210.996093l16.589843 11.617187c6.082032 4.253906 14.539063.625 15.628907-6.726562l9.839843-66.351563c.554688-3.746093-1.050781-7.484375-4.15625-9.65625-3.101562-2.171875-7.164062-2.40625-10.496093-.601562l-58.988281 31.9375c-6.527344 3.53125-7.0625 12.726562-.976563 16.988281l16.164063 11.316406c-67.789063 103.601563-175.046876 177.335938-295.722657 202.90625zm331.457031-236.039062-4.53125 30.5625-22.636718-15.851563zm0 0"/></svg>