<?xml version="1.0" encoding="utf-8"?>
<!-- Generator: Adobe Illustrator 21.1.0, SVG Export Plug-In . SVG Version: 6.00 Build 0)  -->
<svg version="1.1" id="Layer_1" xmlns="http://www.w3.org/2000/svg" xmlns:xlink="http://www.w3.org/1999/xlink" x="0px" y="0px"
	 viewBox="0 0 512 512" style="enable-background:new 0 0 512 512;" xml:space="preserve">
<style type="text/css">
	.st0{fill:#5DE9D4;}
</style>
<path class="st0" d="M416,326c5.5,0,10-4.5,10-10s-4.5-10-10-10s-10,4.5-10,10S410.5,326,416,326z"/>
<path class="st0" d="M502,492h-16V216c0-5.5-4.5-10-10-10h-60c-5.5,0-10,4.5-10,10v60c0,5.5,4.5,10,10,10s10-4.5,10-10v-50h40v266
	h-40V356c0-5.5-4.5-10-10-10s-10,4.5-10,10v136h-40V296c0-5.5-4.5-10-10-10h-60c-5.5,0-10,4.5-10,10v196h-40V356c0-5.5-4.5-10-10-10
	h-60c-5.5,0-10,4.5-10,10v136h-40v-96c0-5.5-4.5-10-10-10H56c-5.5,0-10,4.5-10,10v96H20V10c0-5.5-4.5-10-10-10S0,4.5,0,10v492
	c0,5.5,4.5,10,10,10h492c5.5,0,10-4.5,10-10S507.5,492,502,492z M106,492H66v-86h40V492z M226,492h-40V366h40V492z M346,492h-40V306
	h40V492z"/>
<path class="st0" d="M93.9,315.8c-5.4,1.1-8.9,6.5-7.7,11.9c1.1,5.4,6.4,8.9,11.9,7.7c129.7-27.5,239-105.7,308-211l16.6,11.6
	c6.1,4.3,14.5,0.6,15.6-6.7l9.8-66.4c0.6-3.7-1.1-7.5-4.2-9.7c-3.1-2.2-7.2-2.4-10.5-0.6l-59,31.9c-6.5,3.5-7.1,12.7-1,17l16.2,11.3
	C321.9,216.5,214.6,290.2,93.9,315.8z M425.4,79.7l-4.5,30.6l-22.6-15.9L425.4,79.7z"/>
</svg>
