<?xml version="1.0" encoding="utf-8"?>
<!-- Generator: Adobe Illustrator 21.1.0, SVG Export Plug-In . SVG Version: 6.00 Build 0)  -->
<svg version="1.1" id="Capa_1" xmlns="http://www.w3.org/2000/svg" xmlns:xlink="http://www.w3.org/1999/xlink" x="0px" y="0px"
	 viewBox="0 0 512 512" style="enable-background:new 0 0 512 512;" xml:space="preserve">
<style type="text/css">
	.st0{fill:#5DE9D4;}
</style>
<g>
	<g>
		<path class="st0" d="M506.4,413.5L401.1,308.2c-3.6-3.6-8.4-5.6-13.4-5.6c-3.5,0-6.9,1-9.8,2.7l-59.2-59.2c-3-3-7.9-3-11,0
			c-3,3-3,7.9,0,11l58.7,58.7l-21.6,21.6L237.2,229.9l21.6-21.6l14.4,14.4c3,3,7.9,3,11,0c3-3,3-7.9,0-11l-14.4-14.4l37.5-37.5l3,3
			c3.7,3.7,8.6,5.7,13.8,5.7c5.2,0,10.1-2,13.8-5.7l13.8-13.8c3.7-3.7,5.7-8.6,5.7-13.8c0-5.2-2-10.1-5.7-13.8L245.6,15.1
			c-3.7-3.7-8.6-5.7-13.8-5.7c-5.2,0-10.1,2-13.8,5.7L204.2,29c-3.7,3.7-5.7,8.6-5.7,13.8c0,5.2,2,10.1,5.7,13.8l3,3L88.5,178.2
			l-3-3c-7.6-7.6-20-7.6-27.6,0l-13.8,13.8c-3.7,3.7-5.7,8.6-5.7,13.8c0,5.2,2,10.1,5.7,13.8l106.1,106.1c3.7,3.7,8.6,5.7,13.8,5.7
			s10.1-2,13.8-5.7l13.8-13.8c0,0,0,0,0,0c7.6-7.6,7.6-20,0-27.6l-3-3l37.5-37.5L334.3,349c-1.8,2.9-2.7,6.3-2.7,9.8
			c0,5.1,2,9.8,5.6,13.4l105.3,105.3c3.6,3.6,8.4,5.6,13.4,5.6c5.1,0,9.8-2,13.4-5.6l37.1-37.1c3.6-3.6,5.6-8.4,5.6-13.4
			S510,417.1,506.4,413.5z M215.1,39.9L229,26.1c0.8-0.8,1.8-1.2,2.8-1.2c1.1,0,2.1,0.4,2.8,1.2l106.1,106.1
			c0.8,0.8,1.2,1.8,1.2,2.8s-0.4,2.1-1.2,2.8l-13.8,13.8c-1.5,1.5-4.1,1.5-5.7,0L215.1,45.6c-0.8-0.8-1.2-1.8-1.2-2.8
			C214,41.7,214.4,40.7,215.1,39.9z M180.6,298l-13.8,13.8c-1.5,1.5-4.1,1.5-5.7,0L55,205.7c-0.8-0.8-1.2-1.8-1.2-2.8
			s0.4-2.1,1.2-2.8l13.8-13.8c0.8-0.8,1.8-1.2,2.8-1.2s2,0.4,2.8,1.2l106.1,106.1C182.2,293.9,182.2,296.4,180.6,298z M220.7,224.4
			C220.7,224.4,220.7,224.4,220.7,224.4l-43,43l-78.2-78.2L218.1,70.5l78.2,78.2l-43,43c0,0,0,0,0,0L220.7,224.4z M495.5,429.4
			l-37.1,37.1c-0.9,0.9-1.9,1-2.4,1c-0.5,0-1.6-0.1-2.4-1L348.1,361.2c-0.9-0.9-1-1.9-1-2.4s0.1-1.6,1-2.4l2.3-2.3l34.9-34.9
			c0.9-0.9,1.9-1,2.4-1c0.5,0,1.6,0.1,2.4,1l105.3,105.3c0.9,0.9,1,1.9,1,2.4S496.3,428.5,495.5,429.4z"/>
	</g>
</g>
<g>
	<g>
		<path class="st0" d="M294.8,433.8h-11.9v-40.9c0-9.1-7.4-16.5-16.5-16.5H132.6c-4.3,0-7.8,3.5-7.8,7.8s3.5,7.8,7.8,7.8h133.8
			c0.6,0,1,0.5,1,1v40.9H61.1v-40.9c0-0.6,0.5-1,1-1h21.6c4.3,0,7.8-3.5,7.8-7.8s-3.5-7.8-7.8-7.8H62.2c-9.1,0-16.5,7.4-16.5,16.5
			v40.9H33.7C15.1,433.8,0,448.9,0,467.5v22.1c0,7.2,5.8,13,13,13h302.6c7.2,0,13-5.8,13-13v-22.1
			C328.6,448.9,313.4,433.8,294.8,433.8z M313,487.1L313,487.1H15.5v-19.6c0-10,8.2-18.2,18.2-18.2h261.1c10,0,18.2,8.2,18.2,18.2
			V487.1z"/>
	</g>
</g>
</svg>
