<?xml version="1.0" encoding="utf-8"?>
<!-- Generator: Adobe Illustrator 21.1.0, SVG Export Plug-In . SVG Version: 6.00 Build 0)  -->
<svg version="1.1" id="Layer_1" xmlns="http://www.w3.org/2000/svg" xmlns:xlink="http://www.w3.org/1999/xlink" x="0px" y="0px"
	 viewBox="0 0 512 512" style="enable-background:new 0 0 512 512;" xml:space="preserve">
<style type="text/css">
	.st0{fill:#C4DFC8;stroke:#729277;stroke-width:3;stroke-miterlimit:10;}
</style>
<path class="st0" d="M13,136h46c0,0,1,18,0,18s30,0,30,0v21h36v29h16v19h19v17h14v24h19v12.5h20v6.5h13v7h17v10h24v5h17v8h15v19h22
	v6h17v5h10v9h25v21h18v18h22v7h22v17h17v7h23v75H13V136z"/>
<path d="M20,492V10c0-5.5-4.5-10-10-10S0,4.5,0,10v492c0,5.5,4.5,10,10,10h492c5.5,0,10-4.5,10-10s-4.5-10-10-10H20z"/>
</svg>
