<svg id="Layer_1" data-name="Layer 1" xmlns="http://www.w3.org/2000/svg" xmlns:xlink="http://www.w3.org/1999/xlink" viewBox="0 0 500 500"><defs><style>.cls-1{fill:#07dce0;}.cls-2{fill:none;stroke:#000;stroke-miterlimit:10;stroke-width:8px;stroke-dasharray:15.08 10.05;}.cls-3{fill:#fff;}.cls-4{fill:url(#linear-gradient);}</style><linearGradient id="linear-gradient" x1="192.67" y1="257.82" x2="321.33" y2="257.82" gradientTransform="translate(-7.05 -2.08) rotate(0.61)" gradientUnits="userSpaceOnUse"><stop offset="0" stop-color="#04148c"/><stop offset="0.37" stop-color="#0884cd"/><stop offset="0.91" stop-color="#0bdace"/></linearGradient></defs><title>Icones</title><circle class="cls-1" cx="250" cy="291.93" r="134.73" transform="translate(-44.56 538.82) rotate(-89.39)"/><circle class="cls-2" cx="250" cy="291.93" r="156" transform="translate(-44.56 538.82) rotate(-89.39)"/><path class="cls-3" d="M295.33,209.16C254,151.05,281.22,57,281.22,57S170.31,134.44,163.9,244.46c-10.37-10.6-19.58-24.58-19.58-24.58-7.34,17.06-12,32.71-12.09,45.22a115.33,115.33,0,0,0,114.1,116.54c63.69.68,121-40.66,121.9-124.53.29-27.8-20.25-68.37-50.9-101.52C317.32,155.6,316.47,193.65,295.33,209.16Z"/><path class="cls-4" d="M184.59,270.89c6.95-36,27-78.35,53.64-114.77,9.59,84,82.85,85.55,71.77,152.79-5.17,31.4-37.25,52-63.46,51.75C209.13,360.28,173.49,328.44,184.59,270.89Z"/><path d="M320.92,152.26a5,5,0,0,0-8.52,3.23c0,.33-.87,30.78-16.08,46.32-17.73-28.22-20-64.21-18.65-90a265.72,265.72,0,0,1,8.26-53.41,4.91,4.91,0,0,0-7.54-5.39c-1.26.88-31.24,22-61.19,58.06a4.91,4.91,0,0,0,7.56,6.28,358.85,358.85,0,0,1,48.46-48A286.44,286.44,0,0,0,267.87,111c-2.2,41.4,5.91,76.32,23.46,101a5,5,0,0,0,6.91,1.11c15.33-11.24,20.87-32.53,22.87-45.81,25.78,30.6,42.45,65.66,42.2,89.75-.89,83.51-59.37,120.28-116.93,119.66A110.54,110.54,0,0,1,137.14,265.15c.1-9.24,2.9-21,8.33-35.1a173.86,173.86,0,0,0,14.92,17.85,5,5,0,0,0,8.42-3.15c2.14-36.75,16.47-73.82,42.6-110.18a4.91,4.91,0,0,0-8-5.74C178.87,163,164.31,197.89,160,232.75c-6.59-8-11.54-15.47-11.61-15.57a5,5,0,0,0-8.62.76c-8.16,19-12.36,34.82-12.49,47.11a120.38,120.38,0,0,0,119,121.51c34.08.36,65.29-11,87.89-31.87,25.07-23.2,38.54-56.92,39-97.52C373.44,228.07,352.95,186.89,320.92,152.26Z"/></svg>