<svg id="Layer_1" data-name="Layer 1" xmlns="http://www.w3.org/2000/svg" xmlns:xlink="http://www.w3.org/1999/xlink" viewBox="0 0 500 500"><defs><style>.cls-1{fill:#07dce0;}.cls-2{fill:none;stroke:#000;stroke-miterlimit:10;stroke-width:8px;stroke-dasharray:15.08 10.05;}.cls-3{fill:#fff;}.cls-4{fill:url(#linear-gradient);}</style><linearGradient id="linear-gradient" x1="250.25" y1="278.48" x2="250.25" y2="412.7" gradientUnits="userSpaceOnUse"><stop offset="0" stop-color="#04148c"/><stop offset="0.37" stop-color="#0884cd"/><stop offset="0.91" stop-color="#0bdace"/></linearGradient></defs><title>Icones</title><circle class="cls-1" cx="250" cy="218.25" r="134.73"/><circle class="cls-2" cx="250" cy="218.25" r="156"/><rect class="cls-3" x="126.04" y="258.45" width="247.92" height="174.29"/><polyline class="cls-4" points="354.43 278.48 354.43 412.7 146.08 412.7 146.08 278.48"/><path d="M349.92,253.44V216.88a99.67,99.67,0,1,0-199.33,0v36.56H121V437.75H379V253.44ZM160.6,216.88a89.65,89.65,0,1,1,179.3,0v36.56H160.6ZM369.45,427.73H131.05V263.45h237.9V427.73Z"/><rect x="146.08" y="278.48" width="10.02" height="134.22"/><rect x="344.41" y="278.48" width="10.02" height="134.22"/><rect x="219.7" y="387.66" width="10.02" height="10.02"/><rect x="245.24" y="387.66" width="10.02" height="10.02"/><rect x="270.78" y="387.66" width="10.02" height="10.02"/><path class="cls-3" d="M264.77,336.08a14.52,14.52,0,1,0-19.53,13.52v20.53h10V349.6C260.77,347.09,264.77,342.09,264.77,336.08Z"/></svg>