<svg id="Layer_1" data-name="Layer 1" xmlns="http://www.w3.org/2000/svg" xmlns:xlink="http://www.w3.org/1999/xlink" viewBox="0 0 500 500"><defs><style>.cls-1{fill:#07dce0;}.cls-2{fill:#fff;}.cls-3{fill:url(#linear-gradient);}.cls-4{fill:none;stroke:#000;stroke-miterlimit:10;stroke-width:10px;}</style><linearGradient id="linear-gradient" x1="150.61" y1="282.47" x2="289.08" y2="282.47" gradientUnits="userSpaceOnUse"><stop offset="0" stop-color="#04148c"/><stop offset="0.37" stop-color="#0884cd"/><stop offset="0.91" stop-color="#0bdace"/></linearGradient></defs><title>Icones</title><circle class="cls-1" cx="271.79" cy="228" r="157"/><path class="cls-2" d="M219.79,280.42v-143c-79.4,0-143.52,64.12-143.52,143s64.12,143.52,143.52,143.52A143.35,143.35,0,0,0,363.32,280.42v-3Z"/><path class="cls-3" d="M150.61,282.44a69.23,69.23,0,0,0,138.47.05v-3.57l-69.29,1.49V213.26A69.25,69.25,0,0,0,150.61,282.44Z"/><path d="M224.9,274.83v-143h-5.11c-82,0-148.58,66.63-148.58,148.58S137.84,429,219.79,429s148.1-66.63,148.1-149.11v-8.14Zm-5.11,144c-76.31,0-138.41-62.1-138.41-138.41a138.05,138.05,0,0,1,133.3-137.88v143l143.52-3C357.2,357.74,295.62,418.84,219.79,418.84Z"/><path d="M324.1,307.4c-.53,1.54-1,3-1.54,4.58l9.69,3c.53-1.54,1-3.57,1.54-5.11Z"/><path d="M112.94,293.14l-10.16,1c0,3.57,1,7.13,1.54,10.7l10.16-2C113.95,299.74,113.47,296.17,112.94,293.14Z"/><path d="M116.5,312l-9.69,3a57.13,57.13,0,0,0,3.57,10.16l9.15-4.1C118.52,318.1,117.51,315,116.5,312Z"/><path d="M124.11,330.29,115,334.86c2,3,3.57,6.12,5.59,9.15l8.67-5.11A81.12,81.12,0,0,1,124.11,330.29Z"/><path d="M112.4,280.42v-7.13l-10.16-.53a36.92,36.92,0,0,0-.53,7.61v3l10.7-.53C112.4,282,112.4,281.43,112.4,280.42Z"/><path d="M134.81,346.57l-8.14,6.12c2.55,3,4.58,5.59,7.13,8.14l7.61-6.6A93.75,93.75,0,0,1,134.81,346.57Z"/><path d="M121.61,235.14l-9.15-4a80.68,80.68,0,0,0-4,10.16l9.69,3.57C119.06,241.73,120.55,238.7,121.61,235.14Z"/><path d="M159.23,191.34l-5.59-8.67c-3,2-6.12,4.58-8.67,6.6l6.6,7.61A86.35,86.35,0,0,1,159.23,191.34Z"/><path d="M144,203.58l-7.13-7.13c-2.55,2-4.58,5.11-7.13,7.61l7.61,6.6A67.86,67.86,0,0,0,144,203.58Z"/><path d="M141.41,369c2.55,2,5.11,4.58,8.14,6.6l6.12-8.14c-2.55-2-5.11-4-7.61-6.12Z"/><path d="M115,254l-9.69-2.55a75.69,75.69,0,0,0-2,10.7l10.16,1.54C113.95,260.57,114.48,257,115,254Z"/><path d="M131.24,218.85l-8.14-6.12a84.38,84.38,0,0,0-5.59,9.15l8.67,5.11C127.68,224,129.75,221.41,131.24,218.85Z"/><path d="M304.78,347.1l8.14,6.12c2-3,4-6.12,6.12-8.67L310.37,339A45.9,45.9,0,0,1,304.78,347.1Z"/><path d="M257.95,381.16l3.57,9.69a94.87,94.87,0,0,0,10.16-4.58l-4.58-9.15A72.55,72.55,0,0,1,257.95,381.16Z"/><path d="M275.78,372.54l5.11,8.67a48.17,48.17,0,0,0,9.15-6.12L283.92,367A82.19,82.19,0,0,1,275.78,372.54Z"/><path d="M239.11,386.27l2,10.16a78.87,78.87,0,0,0,10.16-2.55l-2.55-9.69C245.76,384.72,242.2,385.74,239.11,386.27Z"/><path d="M291.53,360.83l6.6,7.61c2.55-2,5.11-4.58,8.14-7.13l-7.61-7.13C296.1,356.25,294.08,358.81,291.53,360.83Z"/><path d="M314.94,330.29l9.15,4.58c2-3,3-6.6,4.58-9.15l-9.69-4.1A92.88,92.88,0,0,1,314.94,330.29Z"/><path d="M162.8,177.13l5.11,9.15c2.55-1.54,5.59-3,8.67-4.58l-4-9.15C168.92,173.57,165.83,175.59,162.8,177.13Z"/><path d="M158.75,381.16c2.55,1.54,6.12,3.57,9.15,5.11l4.58-9.15c-3-1.54-6.12-3-8.67-4.58Z"/><path d="M177.54,390.31a77,77,0,0,0,10.16,3.57l2.55-10.16-9.15-3Z"/><path d="M219.79,388.29v10.16a72.08,72.08,0,0,0,10.7-.53l-1-10.16A59.49,59.49,0,0,1,219.79,388.29Z"/><path d="M198.4,396.43c3.57.53,7.13,1,10.7,1.54l1-10.16c-3-.53-6.6-1-9.69-1.54Z"/><path d="M182.65,168.46l3,9.69c1.54-.53,3-1,4.58-1.54l-2.55-9.69C186.21,167.45,184.19,168,182.65,168.46Z"/><path class="cls-4" d="M350.06,150.68a142.64,142.64,0,0,0-101.27-42.25V252l143-3.57A143.13,143.13,0,0,0,350.06,150.68Z"/></svg>