<svg id="Layer_1" data-name="Layer 1" xmlns="http://www.w3.org/2000/svg" xmlns:xlink="http://www.w3.org/1999/xlink" viewBox="0 0 500 500"><defs><style>.cls-1{fill:#07dce0;}.cls-2{fill:none;stroke-width:8px;stroke-dasharray:15.08 10.05;}.cls-2,.cls-5{stroke:#000;stroke-miterlimit:10;}.cls-3{fill:#fff;}.cls-4{fill:url(#linear-gradient);}.cls-5{stroke-width:4px;}</style><linearGradient id="linear-gradient" x1="106.72" y1="211.17" x2="314.54" y2="211.17" gradientUnits="userSpaceOnUse"><stop offset="0" stop-color="#04148c"/><stop offset="0.37" stop-color="#0884cd"/><stop offset="0.91" stop-color="#0bdace"/></linearGradient></defs><title>Icones</title><circle class="cls-1" cx="256.06" cy="252.13" r="129.94"/><circle class="cls-2" cx="256.06" cy="252.13" r="156"/><path class="cls-3" d="M210.62,80.47h0C139,80.47,80.47,139,80.47,210.62h0c0,72.19,58.52,130.7,130.16,130.7h0a130.7,130.7,0,0,0,130.7-130.7h0C341.33,139,282.81,80.47,210.62,80.47Z"/><path class="cls-4" d="M210.62,315.08A103.91,103.91,0,1,1,314.53,211.17C315.08,268.59,268.59,315.08,210.62,315.08Z"/><circle class="cls-3" cx="247.27" cy="247.27" r="18.59"/><circle class="cls-3" cx="174.53" cy="174.53" r="18.59"/><path class="cls-3" d="M341.17,262.35h0a78.77,78.77,0,0,0-78.75,78.75h0a78.77,78.77,0,0,0,78.75,78.75h0a78.77,78.77,0,0,0,78.75-78.75h0C419.92,297.9,384.38,262.35,341.17,262.35Z"/><rect class="cls-3" x="133.24" y="205.04" width="155.31" height="10.94" transform="translate(-87.08 210.79) rotate(-45)"/><rect class="cls-5" x="302.67" y="338.11" width="77.79" height="5.48" transform="translate(-140.98 341.35) rotate(-45)"/><rect class="cls-5" x="338.82" y="301.96" width="5.48" height="77.79" transform="translate(-140.98 341.35) rotate(-45)"/><path d="M87,266.41A135.37,135.37,0,0,0,210.63,346.8,138.72,138.72,0,0,0,256,339.14v1.64A84.26,84.26,0,0,0,340.23,425c47,0,84.77-37.73,84.77-84.22,0-18.59-5.61-36.11-16-49.78l.14,0a84.16,84.16,0,0,0-68.36-35h-1.64a138.72,138.72,0,0,0,7.66-45.39A135.37,135.37,0,0,0,266.41,87l-1.64-1.09a79.73,79.73,0,0,0-10.39-3.83l-11.48-3.28A130.1,130.1,0,0,0,210.62,75,135.6,135.6,0,0,0,75,210.62a134.12,134.12,0,0,0,10.94,53.59m124.69,71.64c-68.36,0-124.69-56.33-124.69-125.23S142.27,85.94,210.62,85.94c68.91,0,124.69,56.33,124.69,125.23a119.54,119.54,0,0,1-9.3,46.48,84.83,84.83,0,0,0-69.45,69.45A122.75,122.75,0,0,1,210.62,335.86ZM267,340.78a73.29,73.29,0,0,1,73.28-73.28c40.47,0,73.83,32.81,73.83,73.28a73.29,73.29,0,0,1-73.28,73.28C300.31,414.06,267,381.25,267,340.78Z"/></svg>