<svg xmlns="http://www.w3.org/2000/svg" xmlns:xlink="http://www.w3.org/1999/xlink" data-name="Layer 1" width="468" height="468" style=""><rect id="backgroundrect" width="100%" height="100%" x="0" y="0" fill="none" stroke="none" style="" class=""/><defs><style>.cls-1{fill:#07dce0;}.cls-2{fill:#fff;}.cls-3{fill:url(#linear-gradient);}.cls-4{fill:#193651;}</style><linearGradient id="linear-gradient" x1="150.52999877929688" y1="268.1099853515625" x2="325.8500061035156" y2="268.1099853515625" gradientUnits="userSpaceOnUse"><stop offset="0" stop-color="#04148c"/><stop offset="0.37" stop-color="#0884cd"/><stop offset="0.91" stop-color="#0bdace"/></linearGradient></defs><title>Icones</title><g class="currentLayer" style=""><title>Layer 1</title><circle class="cls-1" cx="196.13434928655624" cy="233.87868589162827" r="141" id="svg_1"/><path class="cls-2" d="M341.30434745550156,285.6086968779564 l24,5.1 l11.73,-33.16 L355.10434745550157,246.2786968779564 a104.45,104.45 0 0 0 -2,-41.84 l20.41,-13.26 l-15.31,-32.14 l-23.47,7.14 a102.62,102.62 0 0 0 -31.12,-28.06 l5.1,-24 l-32.65,-11.22 L264.80434745550156,124.3486968779564 a104.45,104.45 0 0 0 -41.84,2 L209.70434745550156,105.9786968779564 l-32.14,14.8 l7.65,23 a102.62,102.62 0 0 0 -28.06,31.12 l-24,-5.1 l-11.73,33.16 l21.94,11.22 a104.45,104.45 0 0 0 2,41.84 l-20.41,13.26 L140.30434745550156,301.3786968779564 l23.47,-7.14 a102.62,102.62 0 0 0 31.12,28.06 l-5.1,24 l33.16,11.73 L234.19434745550154,336.6086968779564 a104.45,104.45 0 0 0 41.84,-2 L289.30434745550156,354.94869687795637 l32.14,-14.8 l-7.65,-23 A117.34,117.34 0 0 0 341.30434745550156,285.6086968779564 z" id="svg_2"/><path d="M224.81434745550155,367.8486968779564 l-41.32,-14.8 l5.1,-24.49 a112.17,112.17 0 0 1 -27,-24.49 l-24,7.65 l-18.88,-39.79 l21.43,-13.77 a127.19,127.19 0 0 1 -2,-36.73 l-22.45,-11.73 l14.29,-41.84 l24.49,5.1 a112.17,112.17 0 0 1 24.49,-27 l-7.14,-24 l40.3,-18.88 l13.77,20.92 a111.25,111.25 0 0 1 36.73,-1.53 L274.30434745550156,100.0086968779564 l41.84,14.8 l-5.1,24.49 a112.17,112.17 0 0 1 27,24.49 l24,-7.65 l18.88,39.79 L359.50434745550155,209.6986968779564 a127.19,127.19 0 0 1 2,36.73 l22.45,11.73 l-14.8,42.35 l-24.49,-5.1 a112.17,112.17 0 0 1 -24.49,27 l7.65,24 l-40.3,18.88 l-13.77,-20.92 a111.25,111.25 0 0 1 -36.73,1.53 zm-29.59,-21.43 l25,9.18 l10.71,-20.92 l3.5700000000000003,0.51 a95,95 0 0 0 39.79,-2 l3.5700000000000003,-1 l12.75,19.9 l24,-11.22 l-7.14,-22.45 l3.06,-2 a107.1,107.1 0 0 0 27,-29.59 l2,-3.06 l23,5.1 l8.67,-25 L350.30434745550156,253.05869687795638 l0.51,-3.5700000000000003 a95.48,95.48 0 0 0 -2,-39.79 l-1,-3.5700000000000003 l19.9,-12.75 l-11.22,-24 l-22.45,7.14 l-2,-3.06 a107.1,107.1 0 0 0 -29.59,-27 l-3.06,-2 l5.1,-23 l-25,-9.18 l-10.71,20.92 l-3.5700000000000003,-0.51 a95,95 0 0 0 -39.79,2 l-3.5700000000000003,1 l-12.75,-19.9 l-24,11.22 l7.14,22.45 l-3.5700000000000003,2.55 a107.1,107.1 0 0 0 -27,29.59 l-2,3.06 l-23,-5.1 l-8.67,25 l20.92,10.71 l-0.51,3.5700000000000003 a95.48,95.48 0 0 0 2,39.79 l1,3.5700000000000003 l-19.9,12.75 l11.22,24 l22.45,-7.14 l2,3.06 a107.1,107.1 0 0 0 29.59,27 l3.06,2 z" id="svg_3" class=""/><polygon points="375.8343784213066,136.73858642578125 333.994382083416,136.73858642578125 333.994382083416,126.53857421875 365.6243869662285,126.53857421875 365.6243869662285,94.89857482910156 375.8343784213066,94.89857482910156 375.8343784213066,136.73858642578125 " id="svg_4" class=""/><polygon points="133.49438208341599,373.46856689453125 123.2843753695488,373.46856689453125 123.2843753695488,331.6285705566406 165.12438696622849,331.6285705566406 165.12438696622849,341.8385925292969 133.49438208341599,341.8385925292969 133.49438208341599,373.46856689453125 " id="svg_5" class=""/><path d="M115.12434745550155,326.5286968779564 c-2,-3.06 -4.08,-6.12 -5.61,-8.67 l8.67,-5.1 c1.53,3.06 3.5700000000000003,5.61 5.1,8.16 zM104.41434745550156,308.6686968779564 c-1.53,-3.06 -3.06,-6.12 -4.59,-9.69 l9.18,-4.08 c1.53,3.06 2.55,6.12 4.08,9.18 zm-8.16,-19.39 c-1,-3.06 -2,-6.63 -3.06,-10.2 l9.69,-3.06 l3.06,9.18 zm-6.12,-20.41 c-0.51,-3.5700000000000003 -1.53,-7.14 -2,-10.2 L98.30434745550156,257.13869687795636 a65.61,65.61 0 0 0 2,9.69 zm-3.06,-20.41 c0,-3.5700000000000003 -0.51,-7.14 -0.51,-10.71 h10.2 a61.74,61.74 0 0 0 0.51,9.69 zm9.69,-20.92 l-10.2,-0.51 a76.11,76.11 0 0 1 1,-10.71 l10.2,1 C97.30434745550156,220.9186968779564 97.30434745550156,224.48869687795641 96.76434745550155,227.5486968779564 zm2,-19.39 L88.59434745550156,206.6086968779564 c0.51,-3.5700000000000003 1.53,-7.14 2,-10.2 l10.2,2 A82.89,82.89 0 0 1 98.80434745550156,208.1686968779564 zm4.59,-19.39 l-9.69,-3.06 A81,81 0 0 1 97.30434745550156,175.5086968779564 L106.96434745550155,179.6086968779564 A68.14,68.14 0 0 0 103.39434745550156,188.77869687795638 zm7.14,-18.37 L101.30434745550156,166.3286968779564 l4.59,-9.18 l9.18,4.59 C113.59434745550158,164.2886968779564 112.06434745550155,167.3486968779564 110.53434745550156,170.4086968779564 zm9.69,-17.35 l-8.67,-5.61 c2,-3.06 4.08,-6.12 6.12,-8.67 l8.16,6.12 A77.84,77.84 0 0 0 120.22434745550157,153.0686968779564 zm11.22,-15.82 L123.80434745550156,130.6086968779564 a102.16,102.16 0 0 1 7.14,-8.16 l7.65,7.14 A49,49 0 0 0 131.45434745550156,137.24869687795638 zm13.77,-14.8 l-7.14,-7.65 l1.53,-1.53 l6.63,7.65 z" id="svg_6" class=""/><path d="M362.05434745550156,130.1086968779564 c-28.06,-29.59 -65.81,-47.45 -106.63,-49 s-80.1,12.75 -109.69,40.3 l-7.14,-7.65 a163.08,163.08 0 0 1 117.34,-43.37 c43.37,1.53 83.67,20.41 113.26,52.55 z" id="svg_7" class=""/><path d="M360.01434745550154,354.6086968779564 l-6.63,-7.65 l1.53,-1 l7.14,7.65 zm9.18,-8.67 l-7.65,-7.14 c2,-2.55 4.59,-5.1 6.63,-7.65 l7.65,6.63 C373.79434745550157,340.8086968779564 371.24434745550155,343.3686968779564 369.19434745550154,345.9186968779564 zM382.4643474555016,329.6086968779564 L374.30434745550156,323.4686968779564 c2,-2.55 3.5700000000000003,-5.61 5.61,-8.16 l8.67,5.61 C386.54434745550157,323.9786968779564 384.50434745550155,327.0386968779564 382.4643474555016,329.6086968779564 zm11.22,-17.86 l-9.18,-4.59 c1.53,-3.06 3.06,-5.61 4.59,-8.67 l9.18,4.08 zm8.67,-18.88 l-9.69,-4.08 l3.06,-9.18 l9.69,3.06 C404.91434745550157,286.2186968779564 403.38434745550154,289.2886968779564 402.36434745550156,292.8586968779564 zm6.12,-20.41 l-9.69,-2.55 a65.61,65.61 0 0 0 2,-9.69 l10.2,1.53 C410.01434745550154,265.81869687795637 409.50434745550155,268.8786968779564 408.48434745550156,272.44869687795637 zm3.5700000000000003,-20.41 l-10.2,-1 a61.74,61.74 0 0 0 0.51,-9.69 l10.2,0.51 A71.85,71.85 0 0 1 412.05434745550156,252.0386968779564 zm-9.18,-20.92 a61.74,61.74 0 0 0 -0.51,-9.69 l10.2,-1 a75.35,75.35 0 0 1 0.51,10.71 zM401.30434745550156,211.2286968779564 a65.61,65.61 0 0 0 -2,-9.69 l10.2,-2 c0.51,3.5700000000000003 1.53,7.14 2,10.2 zm-4.59,-19.39 L393.68434745550155,182.6086968779564 l9.69,-3.5700000000000003 c1,3.06 2,6.63 3.06,10.2 zm-6.63,-18.37 c-1.53,-3.06 -2.55,-6.12 -4.08,-9.18 l9.18,-4.59 c1.53,3.06 3.06,6.12 4.59,9.69 zm-8.67,-17.35 c-1.53,-3.06 -3.5700000000000003,-5.61 -5.1,-8.16 l8.16,-5.61 c2,3.06 4.08,6.12 5.61,8.67 z" id="svg_8" class=""/><path d="M249.81434745550155,397.4386968779564 a163.35,163.35 0 0 1 -119.89,-52.55 l7.65,-7.14 c57.14,62.24 154.08,66.32 215.81,8.67 l7.14,7.65 A163.3,163.3 0 0 1 249.81434745550155,397.4386968779564 z" id="svg_9" class=""/><path class="cls-3" d="M185.72434745550154,290.6686968779564 a87.79,87.79 0 0 1 3.5700000000000003,-124 c35.2,-33.16 90.81,-31.12 124,4.08 a87.79,87.79 0 0 1 -3.5700000000000003,124 C274.49434745550155,327.9086968779564 218.88434745550157,325.8686968779564 185.72434745550154,290.6686968779564 z" id="svg_10"/><path class="cls-2" d="M249.49434745550155,217.1986968779564 h0 a13.51,13.51 0 0 0 -13.26,13.26 h0 a13.51,13.51 0 0 0 13.26,13.26 h0 a13.51,13.51 0 0 0 13.26,-13.26 h0 A13.51,13.51 0 0 0 249.49434745550155,217.1986968779564 z" id="svg_11"/><path class="cls-4" d="M249.49434745550155,248.8386968779564 a18.37,18.37 0 1 1 18.37,-18.37 A18.62,18.62 0 0 1 249.49434745550155,248.8386968779564 zm0,-26.53 a8.16,8.16 0 1 0 8.16,8.16 A8.39,8.39 0 0 0 249.49434745550155,222.30869687795638 z" id="svg_12"/><rect class="cls-2" x="243.3743547797203" y="301.37868589162827" width="11.729999542236328" height="10.199999809265137" id="svg_13"/><rect class="cls-2" x="243.3743547797203" y="149.34870237112045" width="11.729999542236328" height="10.199999809265137" id="svg_14"/><rect class="cls-2" x="168.38434928655624" y="224.3486871123314" width="10.199999809265137" height="11.729999542236328" id="svg_15"/><rect class="cls-2" x="319.9043535590172" y="224.3486871123314" width="10.199999809265137" height="11.729999542236328" id="svg_16"/><rect class="cls-4" x="244.39434379339218" y="174.8586968779564" width="10.199999809265137" height="42.349998474121094" id="svg_17"/><rect class="cls-4" x="262.76435416936874" y="225.3687066435814" width="30.100000381469727" height="10.199999809265137" id="svg_18"/></g></svg>