<svg id="Layer_1" data-name="Layer 1" xmlns="http://www.w3.org/2000/svg" xmlns:xlink="http://www.w3.org/1999/xlink" viewBox="0 0 500 500"><defs><style>.cls-1{fill:#07dce0;}.cls-2{fill:#fff;}.cls-3{fill:#d3d7da;}.cls-4{fill:url(#linear-gradient);}</style><linearGradient id="linear-gradient" x1="203.15" y1="180" x2="359.11" y2="180" gradientUnits="userSpaceOnUse"><stop offset="0" stop-color="#04148c"/><stop offset="0.37" stop-color="#0884cd"/><stop offset="0.91" stop-color="#0bdace"/></linearGradient></defs><title>Icones</title><circle class="cls-1" cx="250" cy="250" r="157"/><path class="cls-2" d="M102.37,419.53H273.54a21.94,21.94,0,0,0,21.87-21.87V170.71H124.24V397.66A21.94,21.94,0,0,1,102.37,419.53Z"/><polygon class="cls-3" points="146.12 397.66 146.12 192.58 273.54 192.58 273.54 397.66 273.54 397.66 146.12 397.66"/><path class="cls-2" d="M411.9,408l-19.69,9.84c-6.56,3.28-15.31.55-18.59-6L317.29,305.78l44.3-22.42L418.46,390C421.74,396,419,404.77,411.9,408Z"/><rect class="cls-2" x="312.92" y="249.89" width="31.72" height="47.03" transform="translate(-88.42 179.63) rotate(-27.08)"/><path class="cls-2" d="M235.8,91.41h0c-49.22,25.16-68.36,85.31-43.75,134.53h0c25.16,49.22,85.31,68.36,134.53,43.75h0c49.22-25.16,68.36-85.31,43.75-134.53h0C344.63,85.94,284.48,66.25,235.8,91.41Z"/><path class="cls-4" d="M281.19,258.21a77.34,77.34,0,0,1-69.45-42.66c-19.69-38.28-4.37-85.31,33.91-105a79.4,79.4,0,0,1,35.55-8.75,77.34,77.34,0,0,1,69.45,42.66,80.56,80.56,0,0,1,4.92,59.61,77.79,77.79,0,0,1-38.83,45.39,75.9,75.9,0,0,1-35.55,8.75Z"/><path class="cls-2" d="M206.82,155.94c-6,19.14-5.47,40.47,4.37,59.61,13.67,26.25,39.92,42.66,69.45,42.66a82,82,0,0,0,30.08-6V155.94Z"/><path class="cls-3" d="M203,185.47a77.52,77.52,0,0,0,8.2,30.62c13.67,26.25,39.92,42.66,69.45,42.66h.55V185.47H203Z"/><path class="cls-2" d="M102.37,419.53a21.94,21.94,0,0,1-21.87-21.87V351.72h43.75"/><rect x="244.01" y="357.74" width="10.94" height="10.94"/><rect x="205.73" y="357.74" width="10.94" height="10.94"/><rect x="167.99" y="357.74" width="10.94" height="10.94"/><rect x="160.34" y="310.7" width="98.98" height="10.94"/><path d="M422.83,386.72l-59.06-111-7.66,3.83L347.37,262a105.27,105.27,0,0,0,27.89-130.15C348.46,80.47,285,60.24,233.07,86.49a103.88,103.88,0,0,0-56.33,78.75h-58v181H75v51.41A27.08,27.08,0,0,0,102.37,425H273.54a27.08,27.08,0,0,0,27.34-27.34V283.91a45.56,45.56,0,0,0,8.2-2.19l8.75,17.5-8.2,4.37,59.06,111a19.39,19.39,0,0,0,17,10.39,17.32,17.32,0,0,0,8.75-2.19L414.08,413A19.31,19.31,0,0,0,422.83,386.72ZM118.77,397.66a16.41,16.41,0,1,1-32.81,0V357.19h32.81Zm171.17,0a16.45,16.45,0,0,1-16.41,16.41H124.24a28.12,28.12,0,0,0,5.47-16.41V176.18h45.94a110.72,110.72,0,0,0,6,39.92H159.79V227H186a104.83,104.83,0,0,0,29.53,36.09H160.34v10.94h73.28A103.23,103.23,0,0,0,289.94,285ZM191,151.57a94.08,94.08,0,0,1,47-55.23c46.48-23.52,103.36-5.47,126.87,41s5.47,103.36-41,126.87C249.48,302.5,165.26,231.41,191,151.57Zm137.81,122.5c3.28-1.64,6-3.28,8.75-4.92l8.2,15.86-18.59,9.3-8.2-15.86A41,41,0,0,0,328.77,274.06Zm80.94,129.06L390,413a7.77,7.77,0,0,1-10.94-3.83L324.94,307.42l34.45-17.5L413,392.19A8.14,8.14,0,0,1,409.71,403.13Z"/><rect x="347.39" y="317.27" width="10.94" height="10.94" transform="translate(-112.16 211.26) rotate(-28.97)"/><rect x="363.11" y="345.55" width="10.94" height="10.94" transform="translate(-123.84 222.24) rotate(-28.95)"/><rect x="378.63" y="374.65" width="10.94" height="10.94" transform="translate(-135.99 233.38) rotate(-28.95)"/><path d="M218.85,227h40.47V216.1H211.74A53.92,53.92,0,0,0,218.85,227Z"/><path d="M316.74,250V150.47H209a64.34,64.34,0,0,0-3.83,10.94H305.26v93A98.58,98.58,0,0,0,316.74,250Z"/></svg>